<?xml version="1.0" encoding="utf-8"?>
<!-- Generator: Adobe Illustrator 26.2.1, SVG Export Plug-In . SVG Version: 6.00 Build 0)  -->
<svg version="1.1" id="Camada_1" xmlns="http://www.w3.org/2000/svg" xmlns:xlink="http://www.w3.org/1999/xlink" x="0px" y="0px"
	 viewBox="0 0 85.92 85.92" style="enable-background:new 0 0 85.92 85.92;" xml:space="preserve">
<g>
	<g>
		<path d="M30.9,26.47c0.36,0.33,0.18,0.29,0.73,0.04c1.12-0.5,0.64-0.87,2.6,0.21c0.35-0.65-0.21-0.95-0.06-1.69
			c0.11-0.52,0.81-1.03,1.2-1.45c-0.95-0.37-1.69,0.09-2.23-1.03l-0.25-0.82c-0.6-0.29-0.5,1.01-1.25,1.5
			c-0.21,0.13-1.28,0.25-1.65,0.34C30.9,24.78,31.84,24.71,30.9,26.47z"/>
		<path d="M38.11,24.85c0.13,0.11,0.06,0.1,0.26,0.02c0.39-0.17,0.22-0.31,0.91,0.07c0.12-0.23-0.07-0.33-0.02-0.59
			c0.04-0.18,0.29-0.36,0.42-0.51c-0.33-0.13-0.59,0.03-0.78-0.36l-0.09-0.29c-0.21-0.1-0.17,0.35-0.44,0.53
			c-0.07,0.05-0.45,0.09-0.58,0.12C38.11,24.26,38.44,24.23,38.11,24.85z"/>
		<path d="M21.08,33.88l-0.03-0.12c-0.18-0.85-1.39-1.22-2.43-1.22c-0.4,0-0.74,0.05-0.99,0.12l0.01,0.02
			c-3.18,0.96-5.65,3.2-5.33,4.68c0.12,0.54,0.62,1.01,1.58,1.29c0.25,0.07,0.4-0.14,0.22-0.31c-0.1-0.07-0.13-0.21-0.16-0.35
			c-0.27-1.27,2.28-3.01,4.7-3.88c-1.05,3.48-4.39,11-8.87,11c-0.2,0-0.38-0.02-0.62-0.07C8.9,45,8.77,45.21,8.93,45.38
			c1.72,1.83,3.3,2.59,4.72,2.59C18.71,47.96,21.44,37.9,21.08,33.88z"/>
		<path d="M41.7,14.54c1.27,1.1,1.46,0.29,1.26,3.37c1.02,0.06,1.07-0.82,2.07-1.06c0.7-0.17,1.75,0.42,2.51,0.66
			c-0.09-1.4-1.1-2.05-0.01-3.38l0.88-0.8c0.02-0.92-1.55-0.03-2.6-0.69c-0.29-0.18-1.06-1.46-1.38-1.87
			c-0.98,1.84-0.34,2.97-3.09,2.83C41.13,14.25,41.07,14,41.7,14.54z"/>
		<path d="M85,36.62l-0.04-0.23c-0.04-0.24-0.08-0.49-0.12-0.73c-0.02-0.13-0.05-0.27-0.07-0.4c-0.03-0.17-0.06-0.35-0.1-0.52
			c-0.72-3.66-1.91-7.14-3.51-10.4l-0.1-0.2c-0.11-0.23-0.23-0.45-0.34-0.68c-0.1-0.19-0.2-0.38-0.3-0.57
			c-0.04-0.08-0.08-0.15-0.12-0.22c-0.13-0.24-0.26-0.47-0.39-0.71l0,0C72.61,9.25,58.91,0.69,43.2,0.69
			c-0.61,0-1.22,0.01-1.83,0.04l0,0C26.94,0.91,13.64,8.59,6.26,21.01c-7.38,12.41-7.77,27.77-1.03,40.54l0-0.01
			c6.88,14.03,21.3,23.69,37.97,23.69c7.38,0,14.31-1.89,20.35-5.21l-0.01,0.01L63.57,80l0.05-0.03c1.21-0.67,2.38-1.4,3.51-2.18
			c0.29-0.2,0.58-0.4,0.87-0.61c-0.09,0.07-0.18,0.14-0.27,0.2c7.3-5.05,12.22-11.32,14.76-18.82l0,0c0.4-0.98,0.75-1.96,1.04-2.94
			c0.47-1.51,0.87-3.05,1.17-4.63l0,0C85.63,46.23,85.72,41.37,85,36.62z M43.2,79.23c-20.03,0-36.27-16.24-36.27-36.27
			c0-5.97,1.44-11.6,4-16.56l3.67-5.74c6.64-8.5,16.98-13.97,28.61-13.97c10.02,0,19.09,4.06,25.65,10.62c0.2,0.2,0.4,0.4,0.59,0.61
			c0.04,0.04,0.07,0.07,0.1,0.11c0.16,0.17,0.32,0.34,0.48,0.52c0.03,0.04,0.07,0.08,0.1,0.11c0.16,0.18,0.32,0.35,0.47,0.53
			l0.09,0.11c0.16,0.18,0.31,0.36,0.46,0.55l0.09,0.1c0.16,0.19,0.31,0.38,0.46,0.57l0.07,0.09c0.16,0.2,0.31,0.4,0.47,0.61
			l0.05,0.06c0.16,0.22,0.33,0.44,0.49,0.67l0.01,0.02c0.66,0.93,1.28,1.89,1.85,2.88c0.04,0.08,0.09,0.15,0.13,0.23
			c0.09,0.16,0.18,0.31,0.26,0.47c0.06,0.11,0.12,0.23,0.19,0.34c0.06,0.12,0.12,0.23,0.18,0.35c0.07,0.14,0.15,0.29,0.22,0.43
			c0.04,0.08,0.08,0.16,0.12,0.24c0.09,0.17,0.17,0.35,0.25,0.52l0.05,0.1c1.29,2.74,2.21,5.61,2.78,8.55l0.02,0.08
			c0.04,0.21,0.08,0.42,0.11,0.64c0.01,0.08,0.03,0.15,0.04,0.23c0.03,0.18,0.06,0.35,0.08,0.53c0.03,0.2,0.06,0.4,0.08,0.6
			c0.01,0.06,0.02,0.13,0.03,0.19c0.04,0.3,0.07,0.6,0.1,0.9v0c0.12,1.22,0.19,2.46,0.19,3.71c0,0.79-0.03,1.57-0.08,2.35l0,0
			c-0.07,1.02-0.17,2.04-0.33,3.06l0,0c-0.02,0.15-0.04,0.29-0.07,0.43l0,0c-0.16,0.99-0.36,1.97-0.61,2.94l0,0
			c-0.18,0.73-0.39,1.46-0.61,2.17l-0.01,0.03c-0.07,0.21-0.13,0.42-0.2,0.62l-0.04,0.13c-0.06,0.18-0.12,0.36-0.19,0.53
			c-0.03,0.07-0.05,0.14-0.08,0.21c-0.06,0.15-0.11,0.31-0.17,0.46c-0.04,0.09-0.07,0.19-0.11,0.28c-0.05,0.13-0.11,0.27-0.16,0.4
			c-0.04,0.11-0.09,0.22-0.14,0.33c-0.05,0.11-0.1,0.23-0.14,0.34c-0.06,0.13-0.11,0.26-0.17,0.39c-0.04,0.1-0.09,0.2-0.13,0.29
			c-0.06,0.14-0.13,0.28-0.19,0.42c-0.04,0.09-0.08,0.18-0.13,0.26c-0.07,0.15-0.15,0.3-0.22,0.45c-0.04,0.07-0.07,0.15-0.11,0.22
			c-0.08,0.16-0.16,0.32-0.25,0.48c-0.04,0.07-0.07,0.13-0.11,0.2c-0.09,0.17-0.18,0.33-0.27,0.49c-0.03,0.06-0.07,0.12-0.1,0.18
			c-0.09,0.17-0.19,0.33-0.28,0.5c-0.04,0.06-0.07,0.12-0.11,0.18c-0.1,0.17-0.2,0.33-0.3,0.5c-0.03,0.06-0.07,0.11-0.1,0.17
			c-0.1,0.16-0.2,0.32-0.3,0.47C67.34,72.55,56.05,79.23,43.2,79.23z M75.5,70.22c-0.19,0.23-0.4,0.46-0.6,0.68
			C75.1,70.68,75.31,70.45,75.5,70.22z M74.57,71.29c-0.12,0.13-0.24,0.26-0.37,0.39C74.33,71.55,74.45,71.42,74.57,71.29
			L74.57,71.29z M69.03,76.42c0.14-0.11,0.28-0.22,0.42-0.33C69.31,76.2,69.17,76.31,69.03,76.42z M70.03,75.62
			c0.16-0.13,0.32-0.26,0.47-0.39C70.35,75.36,70.19,75.49,70.03,75.62z M71.03,74.77c0.26-0.23,0.52-0.46,0.77-0.69
			C71.55,74.31,71.29,74.54,71.03,74.77z M72.32,73.6c0.16-0.15,0.32-0.31,0.48-0.47C72.64,73.29,72.48,73.44,72.32,73.6z
			 M73.24,72.69c0.15-0.16,0.31-0.31,0.46-0.47C73.55,72.38,73.4,72.53,73.24,72.69z"/>
		<path d="M48.11,20.1c-0.05,0.16-0.07,0.1,0.09,0.24c0.32,0.28,0.37,0.07,0.32,0.86c0.26,0.02,0.27-0.21,0.53-0.27
			c0.18-0.04,0.45,0.11,0.64,0.17c-0.02-0.36-0.28-0.52,0-0.86l0.22-0.2c0-0.23-0.39-0.01-0.66-0.17c-0.07-0.05-0.27-0.37-0.35-0.48
			C48.65,19.85,48.81,20.14,48.11,20.1z"/>
		<path d="M67.38,77.63c-0.08,0.06-0.16,0.11-0.24,0.17c-0.06,0.04-0.11,0.08-0.17,0.12C67.11,77.82,67.24,77.73,67.38,77.63z"/>
		<path d="M60.06,27.44c0.72-0.32,0.54-0.2,0.91,0.01c0.19,0.1,0.12,0.11,0.26,0.01c-0.27-0.64,0.05-0.59,0.41-0.98
			c-0.13-0.04-0.5-0.11-0.57-0.17c-0.25-0.19-0.17-0.65-0.39-0.56l-0.11,0.28c-0.22,0.38-0.47,0.19-0.81,0.29
			c0.12,0.16,0.35,0.36,0.38,0.54C60.16,27.12,59.96,27.21,60.06,27.44z"/>
		<path d="M64.93,29.66c2.05-0.9,1.54-0.57,2.61,0.02c0.53,0.29,0.34,0.32,0.73,0.02c-0.78-1.84,0.15-1.68,1.16-2.81
			c-0.36-0.12-1.42-0.33-1.62-0.48c-0.71-0.55-0.49-1.85-1.11-1.61l-0.33,0.8c-0.64,1.07-1.33,0.54-2.31,0.83
			c0.35,0.46,1.01,1.03,1.07,1.55C65.23,28.73,64.63,28.99,64.93,29.66z"/>
		<path d="M50.1,21.85c0.25,0.36-0.02,0.5-0.08,0.86c0.2-0.04,0.48-0.17,0.65-0.11c0.25,0.08,0.24,0.31,0.5,0.31
			c0.02-0.78,0.05-0.57,0.39-0.83c0.17-0.12,0.15-0.06,0.11-0.23c-0.7-0.02-0.51-0.3-0.72-0.79c-0.09,0.1-0.32,0.4-0.39,0.44
			c-0.28,0.14-0.66-0.12-0.68,0.12L50.1,21.85z"/>
		<path d="M52.49,19.32c0.77-0.17,1.87-0.67,2.56-0.44c0.97,0.33,0.95,1.21,1.97,1.24c0.07-3.08,0.19-2.26,1.55-3.24
			c0.67-0.49,0.59-0.25,0.45-0.9c-2.75-0.1-2.01-1.16-2.83-3.09c-0.36,0.38-1.24,1.59-1.54,1.74c-1.11,0.56-2.59-0.46-2.65,0.46
			l0.8,0.87C53.76,17.37,52.7,17.93,52.49,19.32z"/>
		<path d="M60.77,44.88c0.01,0.33,0.06,0.71,0.13,1.01c0.27,1.25,1.02,2.33,2.46,2.33c1.76,0,4.08-3.24,5.21-4.84
			c0.22-0.33,0.43-0.56,0.54-0.71c0.02-0.03,0.04-0.06,0.04-0.09c0.46-0.63,1.3-2.08,1.74-2.96c0.2,0,0.39-0.05,0.56-0.07
			c-0.64,1.34-1.44,4.37-1,6.42c0.26,1.2,1,2.26,2.45,2.26c1.71,0,4.12-3.32,5.27-4.96l0.45-0.61c0.11-0.14-0.04-0.33-0.27-0.33
			h-0.9c-0.06,0-0.16,0.05-0.18,0.09l-0.18,0.24l-0.01-0.02c-0.72,0.94-3,3.83-3.55,3.83c-0.03,0-0.08-0.09-0.1-0.21
			c-0.29-1.36,2.29-5.64,3.25-6.32c0.05-0.02,0.09-0.12,0.08-0.16c-0.05-0.23-0.42-0.63-0.86-0.92c-1.02-0.59-2.48-0.63-3.55-0.63
			h-1.04c-0.07-0.33,0.22-0.73,0.4-0.99c0.13-0.19,0.26-0.26,0.22-0.45c-0.09-0.4-1.14-1.39-2.32-1.39c-1.1,0-2.37,1.1-2.08,2.44
			c0.18,0.85,0.87,1.62,1.83,1.81c-0.52,0.96-1.33,2.3-1.69,2.8c-0.02,0.02-0.03,0.04-0.03,0.06c-0.6,0.79-3.07,3.96-3.62,3.96
			c-0.03,0-0.08-0.09-0.1-0.21c-0.29-1.36,2.26-5.64,3.22-6.32c0.05-0.02,0.09-0.12,0.08-0.16c-0.1-0.45-1.45-1.53-2.9-1.53
			c-0.67,0-1.27,0.14-1.84,0.71c-0.92-0.78-1.91-0.96-2.49-0.96c-2.42,0-4.4,2.21-5.2,4.53c-0.15,0.15-0.36,0.2-0.56,0.2
			c-0.23,0-0.34-0.12-0.38-0.31c-0.12-0.56,0.09-1.22,0.32-1.76c0.19-0.45,0.33-0.87,0.27-1.18c-0.21-0.96-1.4-1.27-1.78-1.27
			c-0.09,0-0.22,0.07-0.23,0.14c-0.36,1.98-4.05,7.83-5.26,8.14c-0.18-0.82,1.03-3.83,1.68-5.41l0.32-0.8
			c0.15-0.4,0.18-0.78,0.12-1.08c-0.28-1.32-2.16-1.6-3.18-1.6c-0.35,0-0.63,0.05-0.71,0.07c-0.05,0.02-0.12,0.09-0.11,0.14
			c-0.01,0.63-0.09,0.94-0.31,1.53c-0.26,0.68-0.67,1.92-0.93,3.26c-0.44,0.52-1.12,0.98-1.8,1.28c0.86-1.41,1.26-2.77,1.02-3.9
			c-0.23-1.06-1.2-1.95-2.64-1.95c-0.38,0-0.71,0.05-1.05,0.21c-0.41-0.16-1.11-0.33-1.78-0.33c-2.44,0-4.02,2.18-4.37,4.64
			c-0.62,0.82-3.03,3.94-3.61,3.94l-0.04-0.19c-0.29-1.36,1.8-5.78,1.86-5.9c0.16-0.47,0.2-0.82,0.14-1.11
			c-0.23-1.08-1.7-1.32-1.7-1.32c-1.76,0.28-3.14,1.13-4.21,2.23c0.06-0.26,0.1-0.49,0.05-0.73c-0.28-1.32-2.16-1.6-3.18-1.6
			c-0.35,0-0.63,0.05-0.71,0.07c-0.05,0.02-0.12,0.09-0.11,0.14c-0.01,0.63-0.08,0.96-0.31,1.53c-0.99,2.66-1.52,5.45-1.25,6.75
			c0.28,1.32,1.88,1.51,2.7,1.55c0.09,0,0.22-0.05,0.24-0.12c1.24-3.41,2.71-5.45,3.64-6.54c-0.34,1.25-0.58,3.1-0.27,4.56
			c0.28,1.29,1.01,2.42,2.51,2.42c1.3,0,3-1.92,4.25-3.56c0.02,0.12,0.04,0.24,0.07,0.36c0.36,1.67,1.39,2.99,3.18,2.99
			c1.56,0,3.25-1.15,4.55-2.66c0.87-0.12,1.76-0.41,2.58-0.95c-0.02,0.57,0,1.12,0.11,1.61c0.25,1.15,1.02,2.21,2.53,2.21
			c1.65,0,4.56-3.01,6.32-5.34c0.27,0.47,0.77,0.89,1.58,0.89c0.04,0,0.09,0,0.13-0.01c-0.09,0.61-0.08,1.19,0.03,1.72
			c0.29,1.34,1.25,2.33,3.03,2.42C58.73,47.91,59.86,46.43,60.77,44.88z M61.06,39.33c0.29,0,0.57,0.24,0.75,0.38
			c-0.14,0.31-0.27,0.63-0.47,1.2l0.02-0.02l-0.57,0.87c-0.97,1.55-2.71,4.23-3.09,4.63C57.48,45.07,59.32,39.33,61.06,39.33z
			 M37.09,46.55h-0.03c-0.08,0.02-0.11,0.02-0.14,0.02c-0.29,0-0.45-0.19-0.51-0.47c-0.14-0.64,0.2-1.79,0.65-2.92
			c-0.02-0.07,0-0.28,0.05-0.02c0.22,1.01,0.95,1.86,2.19,2.14C38.62,46.01,37.88,46.46,37.09,46.55z M40.16,44.29
			c-0.65-0.05-1.02-0.33-1.12-0.75c-0.31-1.43,1.37-4.02,2.4-4.07c0.23,0,0.35,0.14,0.4,0.4C42.05,40.81,41.34,42.74,40.16,44.29z"
			/>
		<g>
			<g>
				<path d="M21.25,58.58l1.06,1.35l0.3-0.23l-1.29-1.65c-1.12,0.88-2.25,1.76-3.37,2.64l1.29,1.65l0.29-0.23l-1.06-1.35l0.69-0.54
					l0.99,1.26l0.3-0.24l-0.99-1.26L21.25,58.58z"/>
				<path d="M19.24,62.51c-0.01,0-0.01,0-0.02,0c-0.04-0.01-0.09-0.03-0.11-0.06l-1.29-1.65c-0.06-0.07-0.04-0.18,0.03-0.24
					c0.82-0.64,1.63-1.28,2.45-1.92l0.92-0.72c0.07-0.06,0.18-0.05,0.24,0.03l1.29,1.65c0.06,0.07,0.04,0.18-0.03,0.24l-0.3,0.23
					c-0.04,0.03-0.08,0.04-0.13,0.03c-0.04-0.01-0.09-0.03-0.11-0.06l-0.96-1.22l-1.51,1.19l0.88,1.13
					c0.03,0.04,0.04,0.08,0.04,0.13c-0.01,0.04-0.03,0.09-0.06,0.11l-0.3,0.24c-0.07,0.06-0.18,0.04-0.24-0.03l-0.88-1.13
					l-0.42,0.33L19.67,62c0.06,0.07,0.04,0.18-0.03,0.24l-0.29,0.23C19.32,62.5,19.28,62.51,19.24,62.51z M18.19,60.71l1.09,1.39
					l0.03-0.02l-0.96-1.22c-0.06-0.07-0.04-0.18,0.03-0.24l0.69-0.54c0.07-0.06,0.18-0.04,0.24,0.03l0.88,1.13l0.04-0.03l-0.88-1.13
					c-0.06-0.07-0.04-0.18,0.03-0.24l1.78-1.4c0.04-0.03,0.08-0.04,0.13-0.03c0.04,0.01,0.09,0.03,0.11,0.06l0.96,1.22l0.03-0.02
					l-1.08-1.39L20.5,58.9C19.73,59.51,18.96,60.11,18.19,60.71z"/>
			</g>
			<g>
				<path d="M18.28,57.61c0.1,0.01,0.21,0.02,0.31,0.01c0.1-0.01,0.21-0.03,0.31-0.06c0.1-0.03,0.2-0.07,0.29-0.13
					c0.09-0.05,0.18-0.12,0.26-0.19c0.08-0.07,0.15-0.15,0.21-0.23c0.06-0.09,0.11-0.18,0.15-0.27c0.04-0.1,0.07-0.2,0.09-0.31
					c0.02-0.1,0.03-0.19,0.03-0.29c0-0.1-0.01-0.2-0.03-0.3c-0.02-0.1-0.05-0.2-0.08-0.29c-0.03-0.09-0.08-0.19-0.13-0.28L19.2,54.4
					c-1.24,0.71-2.48,1.41-3.71,2.12l0.19,0.33l1.08-0.62l0.31,0.54c0.05,0.09,0.11,0.17,0.18,0.25c0.07,0.08,0.14,0.15,0.22,0.22
					c0.08,0.07,0.17,0.12,0.25,0.17c0.09,0.05,0.18,0.09,0.27,0.12C18.08,57.57,18.18,57.6,18.28,57.61z M17.69,56.94
					c-0.06-0.05-0.12-0.11-0.17-0.17c-0.05-0.06-0.09-0.12-0.13-0.19l-0.31-0.54l1.96-1.12l0.31,0.54c0.04,0.07,0.07,0.14,0.1,0.21
					c0.03,0.07,0.05,0.15,0.06,0.23c0.02,0.08,0.02,0.16,0.03,0.23c0,0.08,0,0.15-0.02,0.23c-0.01,0.07-0.03,0.15-0.06,0.22
					c-0.03,0.07-0.06,0.14-0.1,0.2c-0.04,0.06-0.09,0.12-0.15,0.18c-0.06,0.05-0.13,0.1-0.21,0.15c-0.08,0.04-0.16,0.08-0.23,0.1
					c-0.08,0.02-0.16,0.04-0.24,0.04c-0.08,0-0.16,0-0.23-0.01c-0.07-0.01-0.15-0.03-0.22-0.06c-0.07-0.03-0.14-0.06-0.21-0.1
					C17.82,57.04,17.75,56.99,17.69,56.94z"/>
				<path d="M18.47,57.79c-0.07,0-0.14,0-0.21-0.01l0,0c-0.11-0.02-0.23-0.05-0.35-0.09c-0.1-0.03-0.2-0.08-0.29-0.13
					c-0.1-0.06-0.19-0.12-0.28-0.19c-0.09-0.07-0.17-0.15-0.24-0.24c-0.07-0.08-0.14-0.18-0.19-0.28l-0.22-0.39l-0.93,0.53
					c-0.04,0.02-0.09,0.03-0.13,0.02c-0.04-0.01-0.08-0.04-0.1-0.08l-0.19-0.32c-0.05-0.08-0.02-0.19,0.06-0.23
					c1.24-0.71,2.48-1.42,3.71-2.12c0.08-0.05,0.19-0.02,0.23,0.06l0.49,0.86c0.06,0.1,0.1,0.2,0.14,0.3
					c0.04,0.1,0.07,0.21,0.09,0.32c0.02,0.11,0.03,0.22,0.03,0.33c0,0.11-0.01,0.22-0.03,0.33c-0.02,0.12-0.05,0.23-0.1,0.34
					c-0.04,0.11-0.1,0.21-0.17,0.31c-0.07,0.1-0.15,0.18-0.23,0.26c-0.08,0.08-0.18,0.14-0.29,0.21c-0.11,0.06-0.21,0.11-0.32,0.14
					c-0.11,0.04-0.23,0.06-0.34,0.07C18.57,57.79,18.52,57.79,18.47,57.79z M16.75,56.06c0.02,0,0.03,0,0.04,0.01
					c0.04,0.01,0.08,0.04,0.1,0.08l0.31,0.54c0.05,0.08,0.1,0.16,0.16,0.23c0.06,0.07,0.12,0.13,0.2,0.19
					c0.07,0.06,0.15,0.11,0.23,0.16c0.08,0.04,0.16,0.08,0.24,0.11c0.09,0.04,0.19,0.06,0.28,0.07c0,0,0,0,0,0
					c0.09,0.01,0.18,0.02,0.27,0.01c0.09-0.01,0.18-0.03,0.27-0.05c0.09-0.03,0.17-0.07,0.26-0.11c0.08-0.05,0.16-0.1,0.23-0.16
					c0.07-0.06,0.13-0.13,0.18-0.2c0.05-0.07,0.1-0.16,0.13-0.24c0.03-0.09,0.06-0.18,0.08-0.27c0.02-0.09,0.03-0.17,0.03-0.26
					c0-0.09-0.01-0.18-0.03-0.27c-0.02-0.09-0.04-0.18-0.07-0.27c-0.03-0.08-0.07-0.17-0.12-0.25l-0.41-0.72
					c-1.14,0.65-2.28,1.3-3.42,1.95l0.02,0.03l0.93-0.53C16.69,56.07,16.72,56.06,16.75,56.06z M18.49,57.42
					c-0.07,0-0.14,0-0.21-0.01c-0.09-0.01-0.17-0.04-0.25-0.07c-0.08-0.03-0.16-0.07-0.23-0.11c-0.08-0.05-0.15-0.1-0.21-0.16
					c-0.07-0.06-0.13-0.12-0.18-0.19c-0.05-0.07-0.1-0.14-0.15-0.21l-0.31-0.54c-0.02-0.04-0.03-0.09-0.02-0.13
					c0.01-0.04,0.04-0.08,0.08-0.1l1.96-1.12c0.04-0.02,0.09-0.03,0.13-0.02c0.04,0.01,0.08,0.04,0.1,0.08l0.31,0.54
					c0.04,0.07,0.08,0.15,0.11,0.24c0.03,0.08,0.05,0.16,0.07,0.25c0.02,0.09,0.03,0.18,0.03,0.26c0,0.09,0,0.18-0.02,0.26
					c-0.01,0.09-0.04,0.17-0.07,0.25c-0.03,0.08-0.07,0.16-0.12,0.23c-0.05,0.08-0.11,0.15-0.18,0.21
					c-0.07,0.06-0.15,0.12-0.24,0.17c-0.09,0.05-0.18,0.09-0.27,0.12c-0.09,0.03-0.18,0.04-0.28,0.05
					C18.53,57.42,18.51,57.42,18.49,57.42z M17.32,56.1l0.22,0.39c0.03,0.06,0.07,0.12,0.12,0.17c0.04,0.05,0.09,0.1,0.15,0.15
					c0,0,0,0,0,0c0.05,0.05,0.11,0.09,0.16,0.12c0.06,0.03,0.12,0.06,0.18,0.09c0.06,0.02,0.12,0.04,0.19,0.05
					c0.07,0.01,0.13,0.01,0.2,0.01c0.06,0,0.13-0.01,0.19-0.03c0.06-0.02,0.13-0.05,0.2-0.09c0.07-0.04,0.13-0.08,0.18-0.13
					c0.05-0.04,0.09-0.09,0.12-0.15c0.04-0.06,0.07-0.11,0.09-0.17c0.02-0.06,0.04-0.12,0.05-0.18c0.01-0.06,0.01-0.13,0.01-0.2
					c0-0.06-0.01-0.13-0.02-0.2c-0.01-0.07-0.03-0.14-0.06-0.2c-0.02-0.06-0.05-0.13-0.09-0.18l-0.22-0.39L17.32,56.1z"/>
			</g>
			<g>
				<path d="M62.78,60.01c0-0.01,0.01-0.02,0.02-0.03c0.01-0.01,0.02-0.02,0.03-0.02c0.01-0.01,0.03-0.01,0.04-0.01
					c0.01,0,0.02,0,0.03,0c0.05,0.02,0.1,0.03,0.15,0.02c0.05,0,0.1-0.01,0.15-0.04l0,0c0.02-0.01,0.05-0.03,0.07-0.04
					c0.02-0.02,0.04-0.03,0.07-0.05c0.02-0.02,0.04-0.04,0.06-0.07c0.01-0.02,0.03-0.05,0.03-0.08c0.01-0.03,0.01-0.06,0.02-0.08
					c0-0.03,0-0.06,0-0.09c0-0.03,0-0.06-0.01-0.09c-0.01-0.03-0.02-0.05-0.03-0.08c-0.02-0.05-0.05-0.09-0.09-0.13
					c-0.04-0.04-0.08-0.06-0.13-0.08l-0.05-0.02l-0.11,0.31l0.05,0.02c0.02,0.01,0.04,0.02,0.04,0.05c0,0.02,0.01,0.03,0.01,0.04
					c0,0.01,0,0.02,0,0.03c0,0.01-0.01,0.02-0.02,0.03c-0.01,0.01-0.02,0.02-0.04,0.03c-0.01,0.01-0.02,0.01-0.04,0.01
					c-0.01,0-0.02,0-0.03,0c-0.05-0.02-0.1-0.03-0.16-0.03c-0.05,0-0.1,0.02-0.16,0.04c-0.05,0.02-0.1,0.06-0.13,0.1
					c-0.04,0.04-0.07,0.09-0.09,0.14l0,0c-0.02,0.05-0.03,0.11-0.02,0.16c0,0.05,0.01,0.11,0.04,0.16c0.02,0.05,0.05,0.1,0.09,0.14
					c0.04,0.04,0.08,0.07,0.14,0.09l0.05,0.02l0.1-0.31l-0.04-0.02c-0.01,0-0.01-0.01-0.02-0.02c-0.01-0.01-0.01-0.02-0.02-0.03
					c0-0.01-0.01-0.03-0.01-0.04C62.77,60.04,62.77,60.03,62.78,60.01L62.78,60.01z"/>
				<path d="M62.76,60.64c-0.02,0-0.04,0-0.06-0.01l-0.05-0.02c-0.08-0.03-0.14-0.07-0.19-0.13c-0.05-0.05-0.1-0.12-0.13-0.19
					c-0.03-0.07-0.05-0.15-0.05-0.22c0-0.07,0.01-0.15,0.03-0.22c0.03-0.09,0.08-0.15,0.13-0.2c0.05-0.05,0.11-0.1,0.18-0.13
					c0.07-0.03,0.15-0.05,0.22-0.06c0,0,0.01,0,0.01,0c0-0.02,0-0.05,0.01-0.07l0.11-0.31c0.02-0.04,0.05-0.08,0.09-0.1
					c0.04-0.02,0.09-0.02,0.13,0l0.05,0.02c0.07,0.03,0.14,0.07,0.19,0.12c0.05,0.05,0.09,0.11,0.13,0.18
					c0.02,0.04,0.03,0.07,0.04,0.11c0.01,0.03,0.01,0.07,0.02,0.12c0,0.04,0,0.07,0,0.11c0,0.04-0.01,0.08-0.02,0.11
					c-0.01,0.04-0.03,0.08-0.05,0.11c-0.02,0.04-0.05,0.07-0.08,0.1c-0.03,0.03-0.05,0.05-0.08,0.07c-0.03,0.02-0.06,0.04-0.1,0.06
					c-0.08,0.04-0.15,0.05-0.22,0.06c-0.01,0-0.01,0-0.02,0c0,0.02,0,0.05-0.01,0.07l-0.1,0.31c-0.01,0.04-0.05,0.08-0.09,0.1
					C62.81,60.63,62.79,60.64,62.76,60.64z M62.63,59.96l0.15,0.05L62.63,59.96C62.63,59.96,62.63,59.96,62.63,59.96z"/>
			</g>
			<g>
				<path d="M45.58,73.33l-0.43-3.83l-0.01-0.05l-0.38,0.04c0.16,1.42,0.32,2.83,0.48,4.25l2.48-0.28l-0.04-0.37L45.58,73.33z"/>
				<path d="M45.24,73.91c-0.09,0-0.16-0.06-0.17-0.15c-0.16-1.42-0.32-2.83-0.48-4.25c-0.01-0.09,0.06-0.18,0.15-0.19l0.38-0.04
					c0.04,0,0.09,0.01,0.13,0.04c0.04,0.03,0.06,0.07,0.06,0.11l0.42,3.71l1.94-0.22c0.09-0.01,0.18,0.06,0.19,0.15l0.04,0.37
					c0,0.04-0.01,0.09-0.04,0.13c-0.03,0.04-0.07,0.06-0.11,0.06l-2.48,0.28C45.25,73.91,45.25,73.91,45.24,73.91z M44.95,69.64
					c0.15,1.3,0.29,2.61,0.44,3.91l2.14-0.24l0-0.03L45.6,73.5c-0.09,0.01-0.18-0.06-0.19-0.15l-0.42-3.71L44.95,69.64z"/>
			</g>
			<g>
				<path d="M52.77,71.88c0.24-1.47,0.52-2.94,0.78-4.41l0.02-0.09l-2.42,0.94l0.14,0.35l1.79-0.7c-0.05,0.26-0.09,0.53-0.14,0.79
					c-0.22,1.23-0.44,2.47-0.66,3.7c0.95-0.37,1.9-0.74,2.85-1.11l-0.14-0.35L52.77,71.88z"/>
				<path d="M52.28,72.65c-0.04,0-0.08-0.01-0.11-0.04c-0.05-0.04-0.07-0.1-0.06-0.16l0.12-0.68c0.18-1.01,0.35-2.02,0.54-3.02
					l0.04-0.24c0.01-0.08,0.03-0.17,0.04-0.25l-1.5,0.59c-0.04,0.02-0.09,0.02-0.13,0c-0.04-0.02-0.07-0.05-0.09-0.09l-0.14-0.35
					c-0.03-0.09,0.01-0.19,0.1-0.22l2.42-0.94c0.06-0.02,0.12-0.01,0.17,0.03c0.05,0.04,0.07,0.1,0.06,0.16l-0.02,0.09
					c-0.08,0.43-0.16,0.87-0.24,1.3c-0.17,0.92-0.34,1.87-0.5,2.81l1.94-0.75c0.09-0.03,0.19,0.01,0.22,0.1l0.14,0.35
					c0.03,0.09-0.01,0.19-0.1,0.22c-0.66,0.26-1.32,0.52-1.98,0.77l-0.86,0.34C52.32,72.65,52.3,72.65,52.28,72.65z M53.08,67.82
					c0.04,0,0.08,0.01,0.11,0.04c0.05,0.04,0.07,0.1,0.06,0.16c-0.03,0.18-0.07,0.36-0.1,0.55l-0.04,0.24
					c-0.18,1.01-0.36,2.01-0.54,3.02l-0.07,0.38l0.58-0.23c0.61-0.24,1.22-0.47,1.82-0.71l-0.01-0.03l-2.06,0.8
					c-0.06,0.02-0.12,0.01-0.17-0.03c-0.05-0.04-0.07-0.1-0.06-0.16c0.17-1.03,0.36-2.09,0.55-3.11c0.07-0.37,0.13-0.73,0.2-1.1
					l-1.98,0.77l0.01,0.04l1.63-0.63C53.03,67.82,53.05,67.82,53.08,67.82z"/>
			</g>
			<g>
				<path d="M48.9,68.88l-0.05,0.01c0.34,1.38,0.68,2.77,1.03,4.15l0.36-0.09c-0.35-1.38-0.68-2.77-1.03-4.15L48.9,68.88z"/>
				<path d="M49.87,73.22c-0.08,0-0.15-0.05-0.16-0.13c-0.25-0.99-0.49-1.99-0.74-2.99l-0.29-1.17c-0.01-0.04,0-0.09,0.02-0.13
					c0.02-0.04,0.06-0.07,0.11-0.08l0.36-0.09c0.04-0.01,0.09,0,0.13,0.02s0.07,0.06,0.08,0.1l0.22,0.9
					c0.27,1.08,0.53,2.17,0.8,3.25c0.01,0.04,0,0.09-0.02,0.13c-0.02,0.04-0.06,0.07-0.1,0.08l-0.36,0.09
					C49.9,73.21,49.88,73.22,49.87,73.22z M49.05,69.02l0.25,1c0.23,0.94,0.46,1.88,0.7,2.82l0.03-0.01
					c-0.26-1.03-0.51-2.06-0.76-3.09l-0.18-0.74L49.05,69.02z"/>
			</g>
			<g>
				<path d="M63.5,65.15c-0.02,0.11-0.05,0.21-0.08,0.32c-0.04,0.1-0.08,0.2-0.14,0.3c-0.05,0.1-0.12,0.19-0.19,0.27
					c-0.07,0.08-0.15,0.16-0.23,0.23c-0.1,0.08-0.2,0.15-0.3,0.21c-0.11,0.06-0.21,0.1-0.33,0.14c-0.11,0.03-0.23,0.06-0.35,0.07
					c-0.12,0.01-0.24,0.01-0.37,0c-0.12-0.01-0.24-0.04-0.35-0.07c-0.11-0.03-0.22-0.08-0.33-0.13c-0.21-0.11-0.4-0.26-0.56-0.46
					c-0.08-0.09-0.14-0.19-0.2-0.3c-0.06-0.1-0.1-0.22-0.14-0.33c-0.04-0.12-0.06-0.23-0.07-0.35c-0.01-0.12-0.01-0.24,0-0.36
					c0.01-0.13,0.03-0.25,0.07-0.36c0.03-0.12,0.08-0.23,0.13-0.33c0.06-0.11,0.12-0.2,0.2-0.3c0.08-0.09,0.16-0.18,0.26-0.26
					c0.08-0.07,0.17-0.13,0.26-0.18c0.09-0.05,0.19-0.1,0.29-0.14c0.05-0.02,0.1-0.03,0.15-0.04c0.05-0.01,0.1-0.02,0.15-0.03
					c0.05-0.01,0.1-0.02,0.15-0.02c0.05,0,0.1-0.01,0.15-0.01l0.05,0l0-0.38l-0.05,0c-0.06,0-0.13,0-0.19,0.01
					c-0.06,0.01-0.13,0.02-0.18,0.03c-0.12,0.02-0.24,0.05-0.36,0.09c-0.06,0.02-0.12,0.05-0.18,0.07
					c-0.06,0.03-0.12,0.06-0.17,0.09c-0.06,0.03-0.11,0.07-0.16,0.1c-0.05,0.04-0.1,0.07-0.15,0.12c-0.12,0.1-0.22,0.2-0.31,0.31
					c-0.09,0.11-0.17,0.23-0.24,0.36c-0.07,0.13-0.12,0.26-0.16,0.4c-0.04,0.14-0.07,0.28-0.08,0.44c-0.01,0.15-0.01,0.29,0,0.43
					c0.01,0.14,0.04,0.28,0.09,0.42c0.04,0.14,0.1,0.27,0.17,0.4c0.07,0.13,0.15,0.25,0.24,0.36c0.1,0.11,0.2,0.22,0.31,0.31
					c0.11,0.09,0.23,0.17,0.36,0.24c0.13,0.07,0.26,0.12,0.4,0.16c0.14,0.04,0.28,0.07,0.43,0.08c0.13,0.01,0.26,0.01,0.39,0
					c0.13-0.01,0.25-0.03,0.38-0.06c0.12-0.03,0.24-0.08,0.36-0.13c0.1-0.05,0.2-0.1,0.3-0.17l0.21,0.26l0.13-0.1
					c0.02-0.02,0.04-0.03,0.06-0.03c0.02-0.01,0.04-0.01,0.07-0.01c0.02,0,0.04,0.01,0.06,0.02c0.02,0.01,0.04,0.03,0.05,0.05
					c0.02,0.02,0.03,0.04,0.03,0.06c0.01,0.02,0.01,0.04,0.01,0.07c0,0.02-0.01,0.04-0.02,0.06c-0.01,0.02-0.02,0.04-0.04,0.05
					c-0.02,0.02-0.04,0.03-0.06,0.03c-0.02,0.01-0.04,0.01-0.07,0.01c-0.02,0-0.05-0.01-0.06-0.02c-0.02-0.01-0.04-0.02-0.05-0.04
					l-0.03-0.04l-0.25,0.21l0.03,0.04c0.04,0.05,0.09,0.09,0.15,0.12c0.06,0.03,0.12,0.05,0.19,0.06c0.07,0.01,0.13,0,0.19-0.02
					c0.06-0.02,0.12-0.05,0.17-0.09c0.05-0.04,0.1-0.09,0.12-0.15c0.03-0.06,0.05-0.12,0.05-0.19c0.01-0.07,0-0.13-0.02-0.19
					c-0.02-0.06-0.05-0.12-0.09-0.17c-0.04-0.05-0.08-0.08-0.13-0.11c-0.05-0.03-0.1-0.05-0.15-0.06c-0.05-0.01-0.11-0.01-0.16-0.01
					c-0.04,0-0.08,0.01-0.12,0.03l-0.02-0.02c0.08-0.08,0.16-0.16,0.23-0.24c0.08-0.1,0.15-0.21,0.22-0.32
					c0.06-0.11,0.12-0.23,0.16-0.35c0.04-0.12,0.07-0.25,0.1-0.38l0.01-0.05L63.5,65.1L63.5,65.15z"/>
				<path d="M63.36,67.65c-0.02,0-0.05,0-0.07,0c-0.09-0.01-0.17-0.03-0.25-0.07c-0.08-0.04-0.14-0.1-0.2-0.16l-0.03-0.04
					c-0.06-0.07-0.05-0.18,0.02-0.24l0.13-0.1l-0.09-0.11c-0.06,0.04-0.13,0.07-0.19,0.1c-0.12,0.06-0.26,0.1-0.39,0.14
					c-0.14,0.04-0.27,0.06-0.41,0.07c-0.14,0.01-0.28,0.01-0.42,0c-0.16-0.02-0.31-0.05-0.46-0.09c-0.15-0.04-0.29-0.1-0.43-0.18
					c-0.14-0.07-0.27-0.16-0.39-0.26c-0.12-0.1-0.23-0.21-0.34-0.33c-0.1-0.12-0.19-0.25-0.26-0.39c-0.07-0.13-0.13-0.28-0.18-0.43
					c-0.05-0.15-0.08-0.31-0.09-0.46c-0.02-0.15-0.02-0.31,0-0.47c0.01-0.16,0.04-0.32,0.09-0.47c0.04-0.15,0.1-0.29,0.17-0.43
					c0.07-0.14,0.16-0.27,0.26-0.39c0.1-0.12,0.21-0.23,0.33-0.33c0.05-0.04,0.11-0.09,0.16-0.12c0.06-0.04,0.11-0.08,0.17-0.11
					c0.06-0.03,0.12-0.07,0.18-0.09c0.06-0.03,0.13-0.05,0.19-0.08c0.13-0.04,0.26-0.08,0.38-0.1c0.06-0.01,0.13-0.02,0.2-0.03
					c0.07-0.01,0.14-0.01,0.2-0.01l0.05,0c0.05,0,0.09,0.02,0.12,0.05c0.03,0.03,0.05,0.07,0.05,0.12l0,0.38
					c0,0.05-0.02,0.09-0.05,0.12c-0.03,0.03-0.07,0.05-0.12,0.05l-0.05,0c-0.05,0-0.09,0-0.14,0.01c-0.05,0-0.09,0.01-0.14,0.02
					c-0.05,0.01-0.09,0.02-0.14,0.03c-0.04,0.01-0.09,0.02-0.13,0.04c-0.08,0.03-0.17,0.07-0.26,0.12c-0.08,0.05-0.16,0.1-0.23,0.16
					c-0.09,0.07-0.17,0.15-0.24,0.24c-0.07,0.08-0.13,0.17-0.18,0.27c-0.05,0.1-0.09,0.2-0.12,0.3c-0.03,0.1-0.05,0.22-0.06,0.33
					c-0.01,0.11-0.01,0.22,0,0.32c0.01,0.1,0.03,0.21,0.07,0.32c0.03,0.1,0.07,0.21,0.13,0.3c0.05,0.09,0.11,0.19,0.18,0.27
					c0.14,0.17,0.32,0.31,0.51,0.41c0.1,0.05,0.2,0.09,0.3,0.12c0.1,0.03,0.21,0.05,0.32,0.06c0.11,0.01,0.22,0.01,0.33,0
					c0.11-0.01,0.21-0.03,0.32-0.06c0.1-0.03,0.2-0.07,0.3-0.12c0.09-0.05,0.19-0.11,0.27-0.19c0.08-0.06,0.15-0.14,0.21-0.21
					c0.06-0.07,0.12-0.16,0.17-0.24c0.05-0.09,0.09-0.18,0.12-0.27c0.03-0.09,0.06-0.19,0.07-0.29c0,0,0,0,0,0l0.01-0.05
					c0.02-0.09,0.1-0.15,0.19-0.14l0.37,0.06c0.05,0.01,0.09,0.03,0.11,0.07c0.03,0.04,0.04,0.08,0.03,0.13l-0.01,0.05
					c-0.02,0.14-0.06,0.27-0.1,0.4c-0.05,0.13-0.1,0.26-0.17,0.38c-0.06,0.11-0.14,0.22-0.22,0.32c0.05,0.02,0.11,0.04,0.16,0.07
					c0.06,0.04,0.12,0.09,0.17,0.15c0.06,0.07,0.1,0.15,0.12,0.23c0.02,0.08,0.03,0.17,0.03,0.26c-0.01,0.09-0.03,0.18-0.07,0.25
					c-0.04,0.08-0.1,0.14-0.17,0.2c-0.07,0.06-0.15,0.1-0.23,0.13C63.49,67.64,63.43,67.65,63.36,67.65z M61.55,62.81
					c-0.02,0-0.04,0-0.06,0c-0.06,0.01-0.11,0.01-0.17,0.02c-0.11,0.02-0.22,0.05-0.33,0.09c-0.05,0.02-0.11,0.04-0.16,0.07
					s-0.11,0.05-0.16,0.08c-0.05,0.03-0.1,0.06-0.15,0.09c-0.05,0.03-0.09,0.07-0.14,0.11c-0.11,0.09-0.2,0.18-0.29,0.29
					c-0.08,0.1-0.16,0.21-0.22,0.33c-0.06,0.12-0.11,0.24-0.15,0.37c-0.04,0.13-0.06,0.27-0.08,0.41c-0.01,0.13-0.01,0.27,0,0.4
					c0.01,0.13,0.04,0.26,0.08,0.39c0.04,0.13,0.09,0.25,0.15,0.37c0.06,0.12,0.14,0.23,0.22,0.33c0.09,0.11,0.18,0.2,0.29,0.29
					c0.1,0.08,0.22,0.16,0.33,0.22c0.12,0.06,0.24,0.11,0.37,0.15c0.13,0.04,0.26,0.06,0.4,0.08c0.12,0.01,0.24,0.01,0.36,0
					c0.12-0.01,0.23-0.03,0.35-0.06c0.11-0.03,0.23-0.07,0.33-0.12c0.09-0.04,0.19-0.1,0.28-0.15c0.06-0.04,0.15-0.04,0.21,0.01
					c-0.03-0.07-0.02-0.15,0.03-0.2c0.08-0.07,0.15-0.14,0.22-0.22c0.08-0.09,0.14-0.19,0.2-0.29c0.06-0.1,0.11-0.21,0.15-0.33
					c0.03-0.07,0.05-0.15,0.07-0.23l-0.04-0.01c-0.02,0.08-0.04,0.16-0.07,0.23c-0.04,0.11-0.09,0.22-0.15,0.33
					c-0.06,0.11-0.13,0.21-0.2,0.3c-0.08,0.09-0.16,0.18-0.26,0.25c-0.11,0.09-0.22,0.16-0.33,0.22c-0.11,0.06-0.24,0.11-0.36,0.15
					c-0.12,0.04-0.25,0.06-0.38,0.08c-0.13,0.01-0.26,0.01-0.4,0c-0.14-0.01-0.26-0.04-0.39-0.08c-0.12-0.04-0.25-0.09-0.36-0.15
					c-0.23-0.12-0.44-0.29-0.61-0.5c-0.08-0.1-0.16-0.21-0.22-0.32c-0.06-0.11-0.11-0.24-0.15-0.36c-0.04-0.13-0.07-0.26-0.08-0.38
					c-0.01-0.13-0.01-0.26,0-0.39c0.01-0.14,0.04-0.27,0.07-0.39c0.04-0.13,0.09-0.25,0.15-0.36c0.06-0.11,0.13-0.22,0.22-0.32
					c0.08-0.1,0.18-0.2,0.28-0.28c0.09-0.07,0.18-0.14,0.28-0.2c0.1-0.06,0.21-0.11,0.32-0.15c0.06-0.02,0.11-0.03,0.17-0.05
					c0.05-0.01,0.11-0.02,0.16-0.03c0.06-0.01,0.11-0.02,0.17-0.02c0.02,0,0.03,0,0.05,0L61.55,62.81z M63.1,66.67l0.04,0.05
					c0.01-0.01,0.03-0.02,0.04-0.03C63.15,66.69,63.13,66.68,63.1,66.67z"/>
			</g>
			<g>
				<path d="M56.94,70.61l0.35-0.21c-0.07-0.44-0.14-0.88-0.22-1.32l1.45-0.86c0.14,0.11,0.27,0.21,0.39,0.31
					c0.16,0.13,0.33,0.25,0.49,0.38l0.14,0.11l0.03,0.02l0.35-0.21c-1.26-1-2.53-2-3.79-3.01C56.4,67.43,56.67,69.02,56.94,70.61z
					 M57,68.68c-0.11-0.64-0.22-1.29-0.33-1.93c0.51,0.4,1.02,0.81,1.53,1.22L57,68.68z"/>
				<path d="M56.94,70.78c-0.02,0-0.05,0-0.07-0.02c-0.05-0.02-0.09-0.07-0.1-0.13c-0.21-1.23-0.42-2.45-0.63-3.68l-0.19-1.09
					c-0.01-0.07,0.02-0.14,0.08-0.17c0.06-0.04,0.14-0.03,0.19,0.01l1.19,0.94c0.87,0.69,1.73,1.38,2.6,2.06
					c0.04,0.03,0.07,0.09,0.06,0.14c0,0.06-0.03,0.11-0.08,0.13l-0.35,0.21c-0.06,0.04-0.14,0.03-0.19-0.01l-0.17-0.14
					c-0.16-0.13-0.32-0.25-0.49-0.38c-0.09-0.07-0.19-0.15-0.3-0.23l-1.25,0.74c0.06,0.34,0.12,0.68,0.17,1.02l0.03,0.19
					c0.01,0.07-0.02,0.14-0.08,0.17l-0.35,0.21C57,70.77,56.97,70.78,56.94,70.78z M56.37,66.25l0.11,0.65
					c0.19,1.15,0.39,2.29,0.59,3.44l0.04-0.02l-0.01-0.07c-0.06-0.38-0.12-0.75-0.19-1.13c-0.01-0.07,0.02-0.14,0.08-0.18l1.45-0.86
					c0.06-0.04,0.14-0.03,0.19,0.01c0.14,0.11,0.27,0.21,0.39,0.3c0.16,0.13,0.33,0.26,0.49,0.38l0.08,0.06l0.03-0.02
					c-0.8-0.63-1.6-1.27-2.41-1.91L56.37,66.25z M57,68.85c-0.02,0-0.05-0.01-0.07-0.02c-0.05-0.02-0.09-0.07-0.1-0.13
					c-0.05-0.28-0.09-0.56-0.14-0.84c-0.06-0.36-0.12-0.73-0.18-1.09c-0.01-0.07,0.02-0.14,0.08-0.17c0.06-0.04,0.14-0.03,0.19,0.01
					l0.5,0.4c0.34,0.27,0.69,0.54,1.03,0.82c0.04,0.03,0.07,0.09,0.06,0.14s-0.03,0.11-0.08,0.13l-1.2,0.71
					C57.06,68.84,57.03,68.85,57,68.85z M56.91,67.16c0.04,0.22,0.07,0.44,0.11,0.65c0.03,0.2,0.07,0.4,0.1,0.6l0.78-0.46
					c-0.28-0.22-0.56-0.44-0.83-0.66L56.91,67.16z"/>
			</g>
			<g>
				<path d="M32.77,67.97c-0.05-0.14-0.12-0.27-0.19-0.39c-0.08-0.12-0.16-0.24-0.26-0.34c-0.1-0.11-0.21-0.2-0.32-0.28
					c-0.12-0.08-0.24-0.16-0.38-0.22c-0.14-0.06-0.28-0.11-0.42-0.14c-0.14-0.03-0.28-0.05-0.43-0.06c-0.14,0-0.29,0.01-0.43,0.03
					c-0.14,0.02-0.28,0.06-0.42,0.12c-0.14,0.05-0.27,0.11-0.39,0.19c-0.12,0.08-0.24,0.16-0.34,0.26c-0.1,0.1-0.2,0.21-0.28,0.33
					c-0.08,0.12-0.16,0.24-0.22,0.38c-0.12,0.27-0.19,0.55-0.2,0.84c0,0.14,0,0.29,0.03,0.43c0.02,0.14,0.06,0.28,0.11,0.42
					c0.05,0.14,0.12,0.27,0.19,0.39c0.08,0.12,0.16,0.24,0.26,0.34c0.1,0.11,0.21,0.2,0.33,0.29c0.12,0.08,0.25,0.16,0.38,0.22
					c0.14,0.06,0.27,0.11,0.42,0.14c0.14,0.03,0.28,0.05,0.43,0.05c0.14,0,0.29-0.01,0.43-0.03c0.14-0.02,0.28-0.06,0.42-0.12
					c0.14-0.05,0.27-0.12,0.39-0.19c0.12-0.08,0.24-0.16,0.34-0.26c0.11-0.1,0.2-0.21,0.28-0.33c0.08-0.12,0.16-0.25,0.22-0.38
					c0.06-0.13,0.11-0.27,0.14-0.41c0.03-0.14,0.05-0.28,0.06-0.43c0-0.15,0-0.29-0.03-0.43C32.86,68.25,32.82,68.11,32.77,67.97z
					 M32.49,69.17c-0.03,0.12-0.07,0.23-0.12,0.34c-0.1,0.23-0.24,0.42-0.42,0.59c-0.09,0.08-0.18,0.15-0.28,0.22
					c-0.1,0.06-0.21,0.12-0.33,0.16c-0.12,0.04-0.23,0.08-0.35,0.09c-0.12,0.02-0.24,0.03-0.36,0.02c-0.12,0-0.24-0.02-0.35-0.05
					c-0.12-0.03-0.23-0.07-0.34-0.12c-0.11-0.05-0.22-0.11-0.32-0.18c-0.1-0.07-0.19-0.15-0.27-0.23c-0.08-0.09-0.15-0.18-0.22-0.28
					c-0.06-0.1-0.12-0.21-0.16-0.33c-0.09-0.23-0.13-0.47-0.12-0.71c0-0.12,0.02-0.24,0.05-0.36c0.03-0.12,0.07-0.23,0.12-0.35
					c0.05-0.11,0.11-0.22,0.18-0.31c0.07-0.1,0.15-0.19,0.24-0.27c0.09-0.08,0.18-0.15,0.28-0.22c0.1-0.06,0.21-0.12,0.33-0.16
					c0.12-0.04,0.23-0.08,0.35-0.1c0.12-0.02,0.24-0.03,0.36-0.02c0.12,0,0.24,0.02,0.36,0.05c0.12,0.03,0.23,0.07,0.35,0.12
					c0.11,0.05,0.21,0.11,0.31,0.18c0.1,0.07,0.19,0.15,0.27,0.23c0.08,0.09,0.16,0.18,0.22,0.28c0.06,0.1,0.12,0.21,0.16,0.33
					c0.04,0.12,0.08,0.23,0.1,0.35c0.02,0.12,0.03,0.24,0.03,0.36C32.53,68.93,32.52,69.05,32.49,69.17z"/>
				<path d="M30.68,71.15c-0.02,0-0.04,0-0.06,0c-0.16,0-0.31-0.02-0.46-0.06c-0.15-0.03-0.3-0.09-0.45-0.15
					c-0.15-0.07-0.28-0.14-0.41-0.23c-0.13-0.09-0.25-0.19-0.35-0.31c-0.11-0.11-0.2-0.24-0.28-0.37c-0.08-0.13-0.15-0.27-0.21-0.42
					c-0.06-0.15-0.1-0.3-0.12-0.46c-0.03-0.15-0.04-0.31-0.03-0.46c0.01-0.31,0.08-0.62,0.21-0.91c0.06-0.14,0.14-0.28,0.23-0.41
					c0.09-0.12,0.19-0.24,0.3-0.35c0.11-0.11,0.24-0.2,0.37-0.29c0.13-0.08,0.28-0.15,0.42-0.21c0.15-0.06,0.3-0.1,0.45-0.12
					c0.15-0.03,0.31-0.04,0.46-0.03c0.16,0,0.31,0.02,0.46,0.06c0.15,0.04,0.3,0.09,0.45,0.15c0.15,0.07,0.28,0.15,0.41,0.23
					c0.13,0.09,0.24,0.19,0.35,0.31c0.11,0.11,0.2,0.24,0.28,0.37c0.08,0.13,0.15,0.27,0.21,0.42c0.06,0.15,0.1,0.3,0.13,0.45
					c0.03,0.15,0.04,0.31,0.03,0.47c-0.01,0.16-0.03,0.31-0.06,0.46c-0.04,0.15-0.09,0.3-0.15,0.44c-0.07,0.15-0.14,0.28-0.23,0.41
					c-0.09,0.13-0.19,0.24-0.3,0.35c-0.11,0.11-0.24,0.2-0.37,0.28c-0.13,0.08-0.27,0.15-0.42,0.21c-0.15,0.06-0.3,0.1-0.45,0.12
					C30.95,71.14,30.81,71.15,30.68,71.15z M30.7,66.71c-0.11,0-0.23,0.01-0.34,0.03c-0.13,0.02-0.26,0.06-0.39,0.11
					c-0.13,0.05-0.25,0.11-0.36,0.18c-0.11,0.07-0.22,0.15-0.32,0.24c-0.1,0.09-0.19,0.19-0.26,0.3c-0.08,0.11-0.14,0.23-0.2,0.35
					c-0.11,0.25-0.18,0.51-0.18,0.78c0,0.13,0,0.27,0.03,0.4c0.02,0.13,0.06,0.26,0.11,0.39c0.05,0.13,0.11,0.25,0.18,0.36
					c0.07,0.11,0.15,0.22,0.24,0.32c0.09,0.1,0.19,0.19,0.3,0.26c0.11,0.08,0.23,0.14,0.35,0.2c0.13,0.06,0.26,0.1,0.38,0.13
					c0.13,0.03,0.26,0.05,0.39,0.05c0.13,0,0.27-0.01,0.4-0.03c0.13-0.02,0.26-0.06,0.39-0.11c0.13-0.05,0.25-0.11,0.36-0.18
					c0.11-0.07,0.22-0.15,0.31-0.24c0.1-0.09,0.18-0.19,0.26-0.3c0.08-0.11,0.14-0.23,0.2-0.35c0.06-0.12,0.1-0.25,0.13-0.38
					c0.03-0.13,0.05-0.26,0.05-0.4c0-0.13,0-0.27-0.03-0.4c-0.02-0.13-0.06-0.26-0.11-0.39c0,0,0,0,0,0
					c-0.05-0.13-0.11-0.25-0.18-0.37c-0.07-0.11-0.15-0.22-0.24-0.32c-0.09-0.1-0.19-0.18-0.3-0.26c-0.11-0.08-0.23-0.14-0.35-0.2
					c-0.13-0.06-0.26-0.1-0.38-0.13c-0.13-0.03-0.26-0.05-0.4-0.05C30.74,66.71,30.72,66.71,30.7,66.71z M30.7,70.77
					c-0.02,0-0.05,0-0.07,0c-0.13,0-0.26-0.02-0.39-0.05c-0.13-0.03-0.25-0.07-0.37-0.13c-0.12-0.06-0.24-0.12-0.35-0.2
					c-0.11-0.08-0.21-0.16-0.3-0.26c-0.09-0.09-0.17-0.2-0.24-0.31c-0.07-0.11-0.13-0.23-0.17-0.36c-0.09-0.25-0.14-0.51-0.13-0.77
					c0-0.13,0.02-0.26,0.05-0.39c0.03-0.13,0.07-0.25,0.13-0.38c0.06-0.12,0.12-0.24,0.2-0.34c0.08-0.11,0.16-0.21,0.26-0.29
					c0.1-0.09,0.2-0.17,0.31-0.24c0.11-0.07,0.23-0.13,0.36-0.17c0.13-0.05,0.25-0.08,0.38-0.1c0.13-0.02,0.26-0.03,0.39-0.03
					c0.13,0,0.26,0.02,0.39,0.05c0.13,0.03,0.25,0.07,0.38,0.13c0.12,0.05,0.23,0.12,0.34,0.19c0.11,0.08,0.21,0.16,0.3,0.26
					c0.09,0.1,0.17,0.2,0.24,0.31c0.07,0.11,0.13,0.23,0.18,0.36c0.05,0.13,0.08,0.25,0.1,0.38c0.02,0.13,0.03,0.26,0.03,0.39
					c0,0.13-0.02,0.26-0.05,0.39c0,0,0,0,0,0c-0.03,0.13-0.07,0.25-0.13,0.37c-0.11,0.25-0.26,0.46-0.46,0.64
					c-0.1,0.09-0.2,0.17-0.31,0.24c-0.11,0.07-0.23,0.13-0.36,0.17c-0.13,0.05-0.25,0.08-0.38,0.1
					C30.92,70.76,30.81,70.77,30.7,70.77z M30.69,67.09c-0.09,0-0.18,0.01-0.27,0.02c-0.1,0.02-0.21,0.05-0.32,0.09
					c-0.1,0.04-0.2,0.09-0.3,0.15c-0.09,0.06-0.18,0.12-0.26,0.2c-0.08,0.07-0.15,0.16-0.21,0.24c-0.06,0.09-0.12,0.18-0.16,0.29
					c-0.05,0.1-0.08,0.21-0.11,0.32c-0.02,0.11-0.04,0.21-0.04,0.32c-0.01,0.22,0.03,0.43,0.11,0.64c0.04,0.1,0.09,0.2,0.15,0.3
					c0.06,0.09,0.12,0.18,0.2,0.25c0.07,0.08,0.16,0.15,0.25,0.21c0.09,0.06,0.19,0.12,0.29,0.17c0.1,0.04,0.2,0.08,0.31,0.11
					c0.1,0.02,0.21,0.04,0.32,0.04c0.11,0,0.22,0,0.32-0.02c0.11-0.02,0.21-0.05,0.32-0.09c0.11-0.04,0.21-0.09,0.3-0.15
					c0.09-0.06,0.18-0.12,0.26-0.2c0.16-0.15,0.29-0.33,0.38-0.53c0.05-0.1,0.08-0.21,0.11-0.31c0.02-0.11,0.04-0.21,0.04-0.32
					c0-0.11,0-0.22-0.02-0.32c-0.02-0.11-0.05-0.21-0.09-0.32c-0.04-0.1-0.09-0.2-0.15-0.29c-0.06-0.09-0.12-0.18-0.2-0.26
					c-0.07-0.08-0.16-0.15-0.25-0.21c-0.09-0.06-0.18-0.12-0.28-0.16c-0.1-0.05-0.21-0.08-0.32-0.11c-0.11-0.03-0.21-0.04-0.32-0.04
					C30.73,67.09,30.71,67.09,30.69,67.09z M32.49,69.17L32.49,69.17L32.49,69.17z"/>
			</g>
			<g>
				<path d="M39.62,73.56l0.4,0.03c0.19-0.4,0.39-0.8,0.57-1.21l1.68,0.13l0.07,0.23c0.1,0.34,0.21,0.67,0.31,1.01l0.01,0.04
					l0.4,0.03c-0.46-1.54-0.92-3.09-1.38-4.64L39.62,73.56z M40.77,72.01c0.28-0.59,0.56-1.18,0.84-1.77
					c0.19,0.62,0.38,1.25,0.56,1.87L40.77,72.01z"/>
				<path d="M43.06,73.99c0,0-0.01,0-0.01,0l-0.4-0.03c-0.07-0.01-0.13-0.06-0.15-0.12l-0.01-0.04c-0.09-0.3-0.18-0.6-0.27-0.9
					l-0.07-0.23l-1.45-0.11c-0.17,0.37-0.35,0.74-0.52,1.1c-0.03,0.06-0.09,0.1-0.17,0.1l-0.4-0.03c-0.06,0-0.11-0.04-0.13-0.08
					c-0.03-0.05-0.03-0.11-0.01-0.16l2.07-4.37c0.03-0.06,0.09-0.1,0.17-0.1c0.07,0.01,0.13,0.05,0.15,0.12l0.23,0.77
					c0.38,1.29,0.77,2.58,1.15,3.87c0.02,0.05,0,0.11-0.03,0.16C43.16,73.96,43.12,73.99,43.06,73.99z M42.79,73.62l0.04,0
					c-0.36-1.21-0.72-2.42-1.08-3.63l-0.1-0.34l-1.77,3.75l0.04,0c0.18-0.37,0.35-0.73,0.52-1.1c0.03-0.06,0.1-0.1,0.17-0.1
					l1.68,0.13c0.07,0.01,0.13,0.05,0.15,0.12l0.1,0.33C42.62,73.07,42.71,73.35,42.79,73.62z M42.16,72.28c0,0-0.01,0-0.01,0
					l-1.39-0.11c-0.06,0-0.11-0.04-0.13-0.08c-0.03-0.05-0.03-0.11-0.01-0.16c0.12-0.26,0.24-0.52,0.37-0.78
					c0.16-0.33,0.31-0.66,0.47-0.99c0.03-0.06,0.1-0.1,0.17-0.1c0.07,0,0.13,0.05,0.15,0.12c0.15,0.49,0.3,0.99,0.45,1.49l0.11,0.39
					c0.02,0.05,0,0.11-0.03,0.16C42.26,72.26,42.21,72.28,42.16,72.28z M41.03,71.85l0.9,0.07l-0.04-0.15
					c-0.1-0.36-0.21-0.71-0.32-1.07c-0.09,0.2-0.19,0.4-0.28,0.6C41.2,71.49,41.11,71.67,41.03,71.85z"/>
			</g>
			<g>
				<path d="M28.14,64.96c-0.01-0.03-0.03-0.07-0.05-0.11c-0.02-0.04-0.05-0.09-0.08-0.13c-0.03-0.04-0.06-0.09-0.1-0.14
					c-0.04-0.05-0.08-0.1-0.13-0.14c-0.05-0.04-0.1-0.09-0.16-0.13c-0.06-0.04-0.12-0.08-0.18-0.11c-0.06-0.03-0.13-0.06-0.2-0.08
					c-0.14-0.04-0.28-0.05-0.42-0.04c-0.08,0-0.15,0.02-0.22,0.04c-0.07,0.02-0.14,0.05-0.2,0.08c-0.06,0.03-0.12,0.07-0.18,0.12
					c-0.05,0.05-0.1,0.1-0.14,0.16c-0.06,0.08-0.1,0.16-0.13,0.24c-0.03,0.08-0.05,0.16-0.05,0.24c0,0.08,0,0.16,0.02,0.25
					c0.02,0.09,0.05,0.18,0.1,0.28c0.19,0.42,0.38,0.87,0.6,1.28c0.03,0.05,0.05,0.11,0.05,0.16c0.01,0.06,0,0.12-0.01,0.18
					c-0.01,0.06-0.03,0.12-0.06,0.18c-0.02,0.06-0.05,0.11-0.08,0.15c-0.03,0.05-0.07,0.09-0.11,0.13
					c-0.04,0.04-0.09,0.07-0.14,0.09c-0.05,0.03-0.11,0.05-0.17,0.06c-0.06,0.01-0.12,0.02-0.18,0.03c-0.06,0-0.12,0-0.18,0
					c-0.06-0.01-0.12-0.02-0.18-0.03c-0.06-0.02-0.12-0.04-0.17-0.06c-0.05-0.02-0.1-0.05-0.15-0.08c-0.05-0.04-0.1-0.08-0.14-0.12
					c-0.04-0.04-0.08-0.09-0.12-0.13c-0.04-0.05-0.07-0.1-0.1-0.14c-0.03-0.04-0.05-0.09-0.08-0.13c-0.02-0.04-0.04-0.08-0.06-0.12
					c-0.01-0.03-0.03-0.07-0.04-0.1l-0.04-0.14L24.3,66.8l0.05,0.17c0.01,0.04,0.03,0.08,0.05,0.12c0.02,0.04,0.04,0.09,0.07,0.14
					c0.03,0.05,0.06,0.11,0.09,0.16c0.04,0.06,0.08,0.11,0.12,0.17c0.04,0.06,0.1,0.12,0.15,0.17c0.06,0.05,0.12,0.1,0.19,0.15
					c0.07,0.05,0.15,0.1,0.23,0.13c0.08,0.04,0.16,0.06,0.25,0.08c0.17,0.04,0.34,0.05,0.5,0.03c0.08-0.01,0.16-0.03,0.24-0.05
					c0.08-0.02,0.15-0.06,0.23-0.09c0.07-0.04,0.14-0.09,0.2-0.14c0.06-0.05,0.11-0.11,0.16-0.18c0.09-0.13,0.15-0.26,0.18-0.39
					c0.01-0.06,0.02-0.12,0.03-0.17c0.01-0.05,0.01-0.11,0-0.15c0-0.05-0.01-0.09-0.02-0.13c-0.01-0.04-0.02-0.08-0.03-0.11
					l-0.03-0.07c-0.2-0.44-0.41-0.87-0.61-1.31c-0.02-0.04-0.03-0.08-0.04-0.11c-0.01-0.03-0.02-0.07-0.03-0.09
					c-0.01-0.03-0.01-0.06-0.01-0.08c0-0.03,0-0.05,0-0.07c0-0.02,0.01-0.05,0.01-0.07c0.01-0.02,0.01-0.04,0.02-0.06l0.03-0.07
					l0.05-0.07c0.03-0.04,0.06-0.07,0.09-0.1c0.03-0.03,0.07-0.05,0.11-0.07c0.04-0.02,0.09-0.03,0.13-0.05
					c0.04-0.01,0.09-0.02,0.14-0.02c0.05,0,0.1,0,0.14,0c0.05,0,0.1,0.01,0.14,0.03c0.05,0.01,0.09,0.03,0.14,0.05
					c0.04,0.02,0.08,0.04,0.12,0.07c0.04,0.03,0.08,0.06,0.12,0.09c0.03,0.03,0.06,0.07,0.09,0.1c0.03,0.04,0.05,0.07,0.07,0.1
					c0.02,0.03,0.04,0.07,0.06,0.1l0.04,0.08c0.01,0.02,0.02,0.05,0.03,0.07l0.03,0.11l0.37-0.08l-0.04-0.14
					C28.17,65.03,28.16,65,28.14,64.96z"/>
				<path d="M25.84,68.31c-0.13,0-0.25-0.01-0.38-0.04c-0.09-0.02-0.19-0.05-0.28-0.09c-0.09-0.04-0.18-0.09-0.26-0.15
					c-0.08-0.05-0.15-0.11-0.21-0.17c-0.06-0.06-0.12-0.12-0.17-0.19c-0.05-0.06-0.09-0.12-0.13-0.18c-0.04-0.06-0.07-0.12-0.1-0.18
					c-0.03-0.05-0.05-0.11-0.07-0.15c-0.02-0.05-0.04-0.1-0.05-0.14l-0.05-0.17c-0.01-0.04-0.01-0.09,0.01-0.13
					c0.02-0.04,0.06-0.07,0.11-0.08l0.36-0.09c0.09-0.02,0.18,0.03,0.2,0.11l0.04,0.14c0.01,0.03,0.02,0.05,0.03,0.08
					c0.01,0.03,0.03,0.07,0.05,0.11c0.02,0.04,0.04,0.08,0.07,0.12c0.03,0.04,0.06,0.09,0.09,0.13c0.03,0.04,0.06,0.08,0.1,0.11
					c0.04,0.03,0.08,0.07,0.12,0.1c0.04,0.03,0.08,0.05,0.12,0.07c0.05,0.02,0.09,0.04,0.14,0.05c0.05,0.01,0.1,0.02,0.16,0.03
					c0.05,0,0.1,0.01,0.16,0c0.05,0,0.1-0.01,0.15-0.02c0.04-0.01,0.09-0.03,0.13-0.05c0.04-0.02,0.08-0.04,0.11-0.07
					c0.03-0.03,0.06-0.06,0.08-0.09c0.03-0.04,0.05-0.08,0.07-0.12c0.02-0.05,0.04-0.1,0.05-0.15c0.01-0.04,0.01-0.08,0.01-0.12
					c0-0.04-0.02-0.07-0.03-0.1c-0.17-0.32-0.32-0.66-0.47-1l-0.13-0.29c-0.05-0.12-0.08-0.22-0.11-0.32
					c-0.02-0.1-0.03-0.2-0.03-0.3c0.01-0.1,0.03-0.2,0.07-0.29c0.04-0.09,0.09-0.19,0.15-0.28c0.05-0.07,0.11-0.13,0.17-0.19
					c0.06-0.06,0.13-0.1,0.21-0.14c0.08-0.04,0.16-0.07,0.24-0.09c0.08-0.02,0.17-0.04,0.26-0.04c0.15-0.02,0.32,0,0.48,0.04
					c0.08,0.02,0.15,0.05,0.23,0.09c0.07,0.03,0.14,0.07,0.21,0.12c0.07,0.05,0.12,0.09,0.18,0.14c0.06,0.05,0.1,0.11,0.15,0.16
					c0.04,0.05,0.07,0.1,0.1,0.15c0.03,0.05,0.06,0.1,0.09,0.15c0.02,0.05,0.04,0.09,0.06,0.12c0,0,0,0,0,0
					c0.02,0.04,0.03,0.08,0.04,0.11l0.04,0.15c0.01,0.05,0.01,0.09-0.02,0.13c-0.02,0.04-0.06,0.07-0.11,0.08l-0.37,0.08
					c-0.09,0.02-0.17-0.03-0.2-0.12l-0.03-0.11c-0.01-0.02-0.01-0.04-0.02-0.05l-0.04-0.08c-0.01-0.02-0.03-0.05-0.05-0.08
					c-0.02-0.03-0.04-0.06-0.07-0.09c-0.02-0.03-0.04-0.05-0.07-0.08c-0.03-0.03-0.06-0.05-0.1-0.08c-0.03-0.02-0.06-0.04-0.09-0.05
					c-0.04-0.02-0.07-0.03-0.11-0.04c-0.04-0.01-0.08-0.02-0.12-0.02c-0.04,0-0.08,0-0.12,0c-0.04,0-0.07,0.01-0.11,0.02
					c-0.04,0.01-0.07,0.02-0.1,0.04c-0.03,0.01-0.05,0.03-0.07,0.05c-0.02,0.02-0.04,0.04-0.06,0.07l-0.07,0.12
					c0,0-0.01,0.01-0.01,0.03c0,0.02-0.01,0.03-0.01,0.05c0,0.02,0,0.03,0,0.04c0,0.02,0,0.04,0.01,0.06
					c0.01,0.02,0.01,0.05,0.02,0.08c0.01,0.03,0.02,0.06,0.04,0.1c0.07,0.16,0.15,0.33,0.23,0.49c0.13,0.27,0.26,0.54,0.38,0.81
					l0.03,0.08c0.02,0.04,0.03,0.09,0.04,0.14c0.01,0.05,0.01,0.1,0.02,0.15c0,0.06,0,0.12,0,0.18c-0.01,0.06-0.02,0.13-0.03,0.19
					c-0.03,0.14-0.1,0.29-0.21,0.44c-0.05,0.08-0.12,0.15-0.19,0.21c-0.07,0.06-0.15,0.12-0.23,0.16c-0.08,0.05-0.17,0.08-0.26,0.11
					c-0.09,0.03-0.18,0.05-0.27,0.06C25.96,68.31,25.9,68.31,25.84,68.31z M24.51,66.92c0.01,0.03,0.02,0.06,0.04,0.1
					c0.02,0.04,0.04,0.08,0.06,0.13c0.03,0.05,0.05,0.1,0.09,0.15c0.03,0.05,0.07,0.11,0.11,0.16c0.04,0.05,0.08,0.1,0.13,0.15
					c0.05,0.05,0.11,0.09,0.17,0.14c0.07,0.05,0.13,0.09,0.2,0.12c0.07,0.03,0.14,0.06,0.22,0.07c0.15,0.03,0.3,0.04,0.45,0.03
					c0.07-0.01,0.14-0.02,0.21-0.04c0.07-0.02,0.13-0.05,0.2-0.08c0.06-0.03,0.12-0.07,0.17-0.12c0.05-0.04,0.1-0.1,0.13-0.15
					c0.08-0.12,0.13-0.23,0.16-0.33c0.01-0.05,0.02-0.1,0.03-0.15c0-0.05,0.01-0.09,0-0.13c0-0.04-0.01-0.08-0.01-0.11
					c-0.01-0.03-0.01-0.06-0.02-0.08l-0.03-0.07c-0.12-0.26-0.24-0.53-0.37-0.79c-0.08-0.17-0.16-0.33-0.24-0.5
					c-0.02-0.05-0.04-0.09-0.05-0.13c-0.01-0.04-0.02-0.08-0.03-0.11c-0.01-0.04-0.01-0.07-0.02-0.11c0-0.04,0-0.07,0-0.1
					c0-0.03,0.01-0.06,0.02-0.09c0.01-0.03,0.02-0.06,0.03-0.09l0.09-0.16c0.04-0.06,0.08-0.1,0.13-0.14
					c0.05-0.04,0.1-0.07,0.15-0.1c0.05-0.02,0.11-0.04,0.16-0.06c0.05-0.01,0.11-0.02,0.17-0.03c0.06,0,0.12,0,0.17,0
					c0.06,0.01,0.12,0.02,0.17,0.03c0.06,0.02,0.11,0.04,0.16,0.06c0.05,0.02,0.1,0.05,0.15,0.08c0.05,0.03,0.09,0.07,0.13,0.11
					c0.04,0.04,0.08,0.08,0.11,0.12c0.03,0.04,0.05,0.08,0.08,0.11c0.03,0.04,0.05,0.08,0.06,0.11l0.04,0.09
					c0.01,0.02,0.02,0.04,0.02,0.06l0.04-0.01c-0.01-0.01-0.01-0.03-0.02-0.05c-0.01-0.03-0.03-0.07-0.05-0.1
					c-0.02-0.04-0.04-0.08-0.07-0.12c-0.03-0.04-0.06-0.08-0.09-0.12c-0.03-0.04-0.07-0.08-0.11-0.12
					c-0.04-0.04-0.09-0.08-0.14-0.11c-0.05-0.03-0.1-0.07-0.16-0.09c-0.06-0.03-0.11-0.05-0.18-0.07c-0.12-0.03-0.24-0.05-0.36-0.03
					c-0.07,0-0.14,0.02-0.2,0.03c-0.06,0.02-0.12,0.04-0.17,0.07c-0.05,0.03-0.1,0.06-0.14,0.1c-0.04,0.04-0.08,0.08-0.12,0.13
					c-0.05,0.07-0.09,0.14-0.11,0.21c-0.02,0.06-0.04,0.13-0.04,0.19c0,0.06,0,0.13,0.02,0.2c0.02,0.08,0.05,0.16,0.09,0.25
					l0.13,0.29c0.15,0.33,0.3,0.67,0.46,0.98c0.04,0.07,0.06,0.14,0.07,0.22c0.01,0.07,0.01,0.15-0.01,0.23
					c-0.02,0.08-0.04,0.15-0.07,0.21c-0.03,0.07-0.06,0.13-0.1,0.18c-0.04,0.06-0.09,0.11-0.14,0.16c-0.05,0.05-0.12,0.08-0.18,0.12
					c-0.06,0.03-0.13,0.05-0.2,0.07c-0.07,0.02-0.14,0.03-0.21,0.03c-0.07,0-0.14,0-0.21,0c-0.07-0.01-0.14-0.02-0.21-0.04
					c-0.07-0.02-0.14-0.04-0.2-0.07c-0.06-0.03-0.12-0.06-0.18-0.1c-0.06-0.04-0.11-0.09-0.16-0.13c-0.05-0.05-0.1-0.1-0.14-0.16
					c-0.04-0.05-0.07-0.1-0.1-0.15c-0.03-0.05-0.06-0.1-0.08-0.14c-0.02-0.05-0.04-0.09-0.06-0.13c-0.02-0.04-0.03-0.07-0.04-0.1
					L24.51,66.92z"/>
			</g>
			<g>
				<path d="M24.66,63.57c0.05-0.09,0.1-0.18,0.13-0.28c0.03-0.1,0.06-0.2,0.07-0.31c0.01-0.1,0.01-0.21,0-0.32
					c-0.01-0.1-0.03-0.19-0.06-0.29c-0.03-0.09-0.07-0.19-0.12-0.28c-0.05-0.09-0.1-0.18-0.16-0.26c-0.06-0.08-0.13-0.16-0.2-0.23
					l-0.72-0.68c-0.98,1.04-1.96,2.07-2.94,3.11l0.27,0.26l0.86-0.91l0.45,0.43l0.03,0.03l0.08,0.06l-0.07,1.67l0.37,0.35l0.07-1.79
					l0.09,0.04c0.06,0.02,0.11,0.04,0.17,0.06c0.06,0.02,0.12,0.03,0.18,0.04c0.06,0.01,0.12,0.01,0.18,0.01
					c0.11,0.01,0.22,0,0.32-0.01c0.1-0.02,0.21-0.04,0.3-0.08c0.1-0.04,0.19-0.09,0.27-0.15c0.09-0.06,0.17-0.13,0.24-0.21
					C24.54,63.74,24.6,63.66,24.66,63.57z M24.35,63.36c-0.04,0.07-0.09,0.14-0.15,0.2c-0.06,0.07-0.13,0.12-0.19,0.17
					c-0.07,0.04-0.14,0.08-0.21,0.11c-0.08,0.03-0.15,0.05-0.23,0.06c-0.07,0.01-0.15,0.01-0.23,0.01
					c-0.08-0.01-0.15-0.02-0.23-0.04c-0.07-0.02-0.15-0.05-0.22-0.08c-0.07-0.03-0.14-0.07-0.21-0.11
					c-0.06-0.04-0.13-0.09-0.18-0.14l-0.45-0.43l1.55-1.64l0.45,0.43c0.06,0.05,0.11,0.11,0.15,0.17c0.05,0.06,0.09,0.13,0.13,0.2
					c0.08,0.14,0.12,0.29,0.14,0.44c0.01,0.07,0.01,0.15,0.01,0.22c-0.01,0.08-0.02,0.15-0.04,0.23
					C24.42,63.22,24.39,63.29,24.35,63.36z"/>
				<path d="M22.64,66.09c-0.04,0-0.08-0.02-0.12-0.05l-0.37-0.35c-0.04-0.03-0.06-0.08-0.05-0.13l0.06-1.58l-0.05-0.04l-0.33-0.31
					l-0.74,0.78c-0.03,0.03-0.07,0.05-0.12,0.05c-0.04,0-0.09-0.02-0.12-0.05l-0.27-0.26c-0.07-0.06-0.07-0.17-0.01-0.24
					c0.87-0.92,1.74-1.85,2.62-2.77l0.32-0.34c0.06-0.07,0.17-0.07,0.24-0.01l0.72,0.68c0.08,0.08,0.16,0.16,0.22,0.25
					c0.07,0.09,0.13,0.18,0.18,0.28c0.05,0.1,0.1,0.2,0.13,0.31c0.03,0.1,0.05,0.21,0.07,0.32c0.01,0.12,0.02,0.24,0,0.35
					c-0.01,0.12-0.04,0.23-0.07,0.34c-0.04,0.11-0.09,0.22-0.15,0.32c-0.06,0.1-0.13,0.19-0.22,0.28c-0.08,0.09-0.17,0.17-0.27,0.23
					c-0.09,0.07-0.2,0.12-0.31,0.17c-0.11,0.04-0.22,0.08-0.34,0.09c-0.12,0.02-0.24,0.02-0.36,0.02c-0.06,0-0.13-0.01-0.19-0.02
					c-0.07-0.01-0.13-0.02-0.2-0.04c-0.02-0.01-0.04-0.01-0.06-0.02l-0.06,1.55c0,0.07-0.04,0.13-0.11,0.15
					C22.69,66.08,22.67,66.09,22.64,66.09z M22.44,65.49l0.04,0.04l0.05-1.42c0-0.06,0.03-0.11,0.08-0.14
					c0.05-0.03,0.11-0.03,0.16-0.01l0.09,0.04c0.04,0.02,0.1,0.04,0.15,0.05c0.05,0.01,0.1,0.02,0.16,0.03
					c0.05,0.01,0.1,0.01,0.15,0.01c0.11,0.01,0.2,0,0.29-0.01c0.09-0.01,0.18-0.04,0.26-0.07c0.09-0.03,0.17-0.08,0.24-0.13
					c0.07-0.05,0.15-0.11,0.21-0.18c0.07-0.07,0.13-0.15,0.17-0.22c0,0,0,0,0,0c0.05-0.08,0.09-0.16,0.12-0.25
					c0.03-0.09,0.05-0.18,0.06-0.27c0.01-0.09,0.01-0.19,0-0.28c-0.01-0.09-0.03-0.18-0.05-0.26c-0.03-0.09-0.06-0.17-0.1-0.25
					c-0.04-0.08-0.09-0.16-0.15-0.24c-0.06-0.07-0.12-0.14-0.18-0.21l-0.6-0.57l-0.2,0.22c-0.83,0.88-1.67,1.76-2.5,2.65l0.02,0.02
					l0.74-0.78c0.03-0.03,0.07-0.05,0.12-0.05c0.05,0,0.09,0.02,0.12,0.05l0.54,0.5c0.05,0.03,0.07,0.09,0.07,0.14L22.44,65.49z
					 M23.4,64.07c-0.03,0-0.05,0-0.08,0c-0.09-0.01-0.17-0.02-0.26-0.04c-0.08-0.02-0.17-0.05-0.25-0.09
					c-0.08-0.04-0.16-0.08-0.23-0.13c-0.07-0.05-0.14-0.1-0.2-0.16l-0.45-0.43c-0.03-0.03-0.05-0.07-0.05-0.12
					c0-0.05,0.02-0.09,0.05-0.12l1.55-1.64c0.06-0.07,0.17-0.07,0.24-0.01l0.45,0.43c0.06,0.06,0.12,0.12,0.17,0.19
					c0.05,0.07,0.1,0.14,0.14,0.22c0.09,0.16,0.14,0.33,0.16,0.49c0.01,0.09,0.01,0.18,0.01,0.26c-0.01,0.08-0.02,0.17-0.05,0.26
					c-0.02,0.09-0.06,0.17-0.11,0.26l0,0c-0.05,0.08-0.11,0.16-0.18,0.23c-0.07,0.07-0.14,0.14-0.22,0.19
					c-0.08,0.05-0.17,0.1-0.25,0.13c-0.08,0.03-0.17,0.05-0.26,0.06C23.52,64.07,23.46,64.07,23.4,64.07z M22.28,63.1l0.33,0.31
					c0.05,0.05,0.1,0.09,0.16,0.13c0.06,0.04,0.12,0.07,0.18,0.1c0.06,0.03,0.13,0.05,0.19,0.07c0.06,0.02,0.13,0.03,0.2,0.03
					c0.06,0,0.13,0,0.19-0.01c0.06-0.01,0.13-0.03,0.19-0.05c0.06-0.02,0.12-0.05,0.18-0.09c0.06-0.04,0.11-0.09,0.16-0.14
					c0.05-0.06,0.1-0.11,0.13-0.17c0.03-0.06,0.06-0.12,0.07-0.17c0.02-0.07,0.03-0.13,0.03-0.19c0-0.06,0-0.13-0.01-0.19
					c-0.02-0.13-0.06-0.26-0.13-0.38c-0.03-0.06-0.07-0.12-0.11-0.18c-0.04-0.06-0.09-0.11-0.14-0.15L23.6,61.7L22.28,63.1z
					 M24.35,63.36L24.35,63.36L24.35,63.36z"/>
			</g>
			<g>
				<path d="M69.39,58.98c0.13-0.07,0.26-0.14,0.37-0.23c0.11-0.09,0.22-0.19,0.31-0.3c0.09-0.11,0.18-0.23,0.25-0.35
					c0.07-0.12,0.13-0.26,0.18-0.4c0.05-0.14,0.08-0.28,0.1-0.43c0.02-0.14,0.02-0.29,0.01-0.43c-0.01-0.14-0.04-0.29-0.07-0.43
					c-0.04-0.14-0.09-0.28-0.16-0.41c-0.07-0.13-0.14-0.26-0.23-0.37c-0.09-0.11-0.19-0.22-0.3-0.32c-0.11-0.1-0.23-0.18-0.35-0.25
					c-0.13-0.07-0.26-0.13-0.4-0.18c-0.14-0.05-0.28-0.08-0.43-0.1c-0.14-0.02-0.29-0.02-0.43-0.02c-0.14,0.01-0.28,0.03-0.42,0.07
					c-0.14,0.04-0.28,0.09-0.41,0.16c-0.27,0.13-0.5,0.31-0.69,0.53c-0.09,0.11-0.18,0.23-0.25,0.35c-0.07,0.13-0.13,0.26-0.18,0.4
					c-0.05,0.14-0.08,0.28-0.1,0.42c-0.02,0.14-0.02,0.29-0.01,0.43c0.01,0.14,0.04,0.29,0.07,0.43c0.04,0.14,0.09,0.28,0.16,0.41
					c0.07,0.13,0.14,0.26,0.23,0.37c0.09,0.11,0.19,0.22,0.3,0.32c0.11,0.09,0.23,0.18,0.35,0.25c0.13,0.07,0.26,0.13,0.4,0.18
					c0.14,0.05,0.28,0.08,0.43,0.1c0.14,0.02,0.29,0.02,0.43,0.01c0.14-0.01,0.29-0.03,0.43-0.07
					C69.12,59.1,69.26,59.04,69.39,58.98z M68.53,58.83c-0.12,0.01-0.24,0.01-0.36-0.01c-0.12-0.02-0.24-0.04-0.35-0.08
					c-0.12-0.04-0.23-0.09-0.33-0.15c-0.1-0.06-0.2-0.13-0.29-0.21c-0.09-0.08-0.17-0.17-0.25-0.26c-0.07-0.09-0.14-0.2-0.19-0.31
					c-0.06-0.11-0.1-0.22-0.13-0.34c-0.03-0.11-0.05-0.23-0.06-0.35c-0.02-0.24,0.02-0.48,0.09-0.71c0.04-0.12,0.09-0.23,0.15-0.33
					c0.06-0.1,0.13-0.2,0.21-0.29c0.08-0.09,0.17-0.17,0.26-0.24c0.1-0.07,0.2-0.14,0.31-0.19c0.11-0.05,0.22-0.1,0.33-0.13
					c0.11-0.03,0.23-0.05,0.35-0.06c0.24-0.02,0.48,0.01,0.71,0.09c0.23,0.08,0.44,0.2,0.62,0.35c0.09,0.08,0.17,0.17,0.25,0.26
					c0.07,0.09,0.14,0.2,0.19,0.31c0.06,0.11,0.1,0.23,0.13,0.34c0.03,0.12,0.05,0.23,0.06,0.35c0.01,0.12,0,0.24-0.01,0.36
					c-0.02,0.12-0.04,0.24-0.08,0.35c-0.04,0.12-0.09,0.23-0.15,0.33c-0.06,0.1-0.13,0.2-0.21,0.29c-0.08,0.09-0.17,0.17-0.26,0.24
					c-0.09,0.07-0.2,0.14-0.3,0.19c-0.11,0.06-0.23,0.1-0.34,0.13C68.76,58.8,68.65,58.82,68.53,58.83z"/>
				<path d="M68.41,59.38c-0.1,0-0.21-0.01-0.31-0.02c-0.15-0.02-0.31-0.06-0.46-0.11c-0.15-0.05-0.3-0.11-0.43-0.19
					c-0.13-0.08-0.26-0.17-0.38-0.27c-0.12-0.1-0.23-0.22-0.32-0.34c-0.09-0.12-0.18-0.26-0.25-0.4c-0.07-0.14-0.13-0.29-0.17-0.44
					c-0.04-0.15-0.07-0.3-0.08-0.46c-0.01-0.15-0.01-0.31,0.01-0.47c0.02-0.15,0.06-0.3,0.11-0.46c0.05-0.15,0.11-0.29,0.19-0.43
					c0.08-0.14,0.17-0.27,0.27-0.38c0.2-0.24,0.45-0.43,0.74-0.57c0.14-0.07,0.29-0.13,0.44-0.17c0.15-0.04,0.31-0.07,0.46-0.08
					c0.15-0.01,0.31,0,0.46,0.02c0.15,0.02,0.31,0.06,0.46,0.11c0.15,0.05,0.3,0.11,0.43,0.19c0.13,0.08,0.26,0.17,0.38,0.27
					c0.12,0.1,0.22,0.22,0.32,0.34c0.09,0.12,0.18,0.26,0.25,0.4c0.07,0.15,0.13,0.29,0.17,0.44c0.04,0.15,0.07,0.3,0.08,0.46
					c0.01,0.16,0.01,0.31-0.01,0.47c-0.02,0.16-0.06,0.31-0.11,0.46c-0.05,0.15-0.11,0.3-0.19,0.43c-0.08,0.13-0.17,0.26-0.27,0.38
					c-0.1,0.12-0.21,0.22-0.34,0.32c-0.12,0.09-0.26,0.18-0.4,0.25c0,0,0,0,0,0c-0.14,0.07-0.29,0.13-0.44,0.17
					c-0.15,0.04-0.31,0.07-0.46,0.08C68.52,59.38,68.46,59.38,68.41,59.38z M68.39,54.94c-0.04,0-0.08,0-0.13,0
					c-0.13,0.01-0.26,0.03-0.39,0.07c-0.13,0.03-0.25,0.08-0.38,0.15c-0.25,0.12-0.46,0.29-0.63,0.49c-0.09,0.1-0.16,0.21-0.23,0.33
					c-0.07,0.12-0.12,0.24-0.16,0.37c-0.05,0.13-0.08,0.26-0.09,0.39c-0.02,0.13-0.02,0.27-0.01,0.4c0.01,0.13,0.03,0.26,0.07,0.39
					c0.03,0.13,0.08,0.25,0.14,0.38c0.06,0.12,0.13,0.24,0.21,0.35c0.08,0.1,0.17,0.2,0.27,0.29c0.1,0.09,0.21,0.17,0.32,0.23
					c0.12,0.07,0.24,0.12,0.37,0.16c0.13,0.04,0.26,0.08,0.4,0.09c0.13,0.02,0.27,0.02,0.4,0.01c0.13-0.01,0.26-0.03,0.39-0.07
					c0.13-0.03,0.25-0.08,0.38-0.15c0.12-0.06,0.24-0.13,0.34-0.21c0.11-0.08,0.2-0.17,0.29-0.27c0.09-0.1,0.16-0.21,0.23-0.33
					c0.07-0.12,0.12-0.24,0.16-0.37c0.04-0.13,0.07-0.26,0.09-0.4c0.02-0.13,0.02-0.26,0.01-0.4c-0.01-0.13-0.03-0.26-0.07-0.39
					c-0.03-0.13-0.08-0.25-0.15-0.38c-0.06-0.12-0.13-0.24-0.21-0.34c-0.08-0.11-0.17-0.2-0.27-0.29c-0.1-0.09-0.21-0.17-0.32-0.23
					c-0.11-0.07-0.24-0.12-0.37-0.16c-0.13-0.04-0.27-0.08-0.4-0.09C68.57,54.95,68.48,54.94,68.39,54.94z M69.39,58.98L69.39,58.98
					L69.39,58.98z M68.4,59c-0.08,0-0.17-0.01-0.25-0.02c-0.13-0.02-0.26-0.05-0.39-0.09c-0.12-0.04-0.24-0.09-0.36-0.16
					c-0.11-0.06-0.22-0.14-0.32-0.23c-0.1-0.09-0.19-0.18-0.27-0.29c-0.08-0.1-0.15-0.22-0.21-0.34c-0.06-0.12-0.11-0.25-0.14-0.37
					c-0.03-0.12-0.06-0.25-0.06-0.38c-0.02-0.26,0.02-0.52,0.1-0.78c0.04-0.12,0.09-0.24,0.16-0.36c0.06-0.11,0.14-0.22,0.23-0.32
					c0.09-0.1,0.18-0.19,0.29-0.27c0.1-0.08,0.22-0.15,0.34-0.21c0.12-0.06,0.24-0.11,0.37-0.14c0.12-0.03,0.25-0.06,0.39-0.07
					c0.26-0.02,0.52,0.01,0.78,0.1c0.25,0.09,0.48,0.22,0.68,0.39c0.1,0.09,0.19,0.18,0.27,0.28c0.08,0.1,0.15,0.21,0.21,0.34
					c0.06,0.12,0.11,0.25,0.14,0.37c0.04,0.13,0.06,0.26,0.06,0.39c0.01,0.13,0,0.26-0.01,0.39c-0.02,0.13-0.05,0.26-0.09,0.38
					c-0.04,0.13-0.1,0.25-0.16,0.36c-0.07,0.11-0.14,0.22-0.23,0.32c-0.09,0.1-0.18,0.19-0.29,0.27c-0.1,0.08-0.21,0.15-0.33,0.21
					c-0.12,0.06-0.25,0.11-0.37,0.14c-0.12,0.04-0.25,0.06-0.39,0.07l0,0C68.49,59,68.44,59,68.4,59z M68.53,58.83L68.53,58.83
					L68.53,58.83z M68.41,55.32c-0.04,0-0.08,0-0.12,0c-0.11,0.01-0.22,0.03-0.32,0.05c-0.1,0.03-0.21,0.07-0.3,0.12
					c-0.1,0.05-0.2,0.11-0.29,0.18c-0.08,0.07-0.16,0.14-0.24,0.22c-0.07,0.08-0.13,0.17-0.19,0.26c-0.05,0.1-0.1,0.2-0.13,0.3
					c-0.07,0.21-0.1,0.43-0.09,0.65c0.01,0.11,0.03,0.22,0.05,0.32c0.03,0.1,0.07,0.21,0.12,0.31c0.05,0.1,0.11,0.2,0.18,0.28
					c0.07,0.09,0.14,0.16,0.22,0.24c0.08,0.07,0.17,0.13,0.26,0.19c0.1,0.05,0.2,0.1,0.3,0.13c0.11,0.04,0.22,0.06,0.32,0.07
					c0.11,0.01,0.21,0.02,0.32,0.01c0.11-0.01,0.22-0.03,0.32-0.06c0.1-0.03,0.21-0.07,0.31-0.12c0.1-0.05,0.19-0.11,0.28-0.17
					c0.08-0.06,0.16-0.14,0.24-0.22c0.07-0.08,0.14-0.17,0.19-0.26c0.05-0.09,0.1-0.19,0.13-0.3c0.04-0.11,0.06-0.22,0.07-0.32
					c0.01-0.11,0.02-0.22,0.01-0.32c-0.01-0.11-0.02-0.21-0.05-0.32c-0.03-0.1-0.07-0.21-0.12-0.31c-0.05-0.1-0.11-0.2-0.17-0.28
					c-0.07-0.08-0.14-0.16-0.22-0.23c-0.16-0.14-0.36-0.25-0.57-0.32C68.76,55.35,68.58,55.32,68.41,55.32z"/>
			</g>
			<g>
				<path d="M63.17,60.02l2.36,4.22l0.26-0.31c-0.22-0.39-0.43-0.78-0.65-1.17l1.08-1.3l0.23,0.08l0.83,0.28l0.17,0.06l0.03,0.01
					l0.26-0.31C66.23,61.06,64.7,60.54,63.17,60.02z M64.94,62.4c-0.32-0.57-0.64-1.14-0.95-1.71c0.62,0.21,1.24,0.42,1.85,0.63
					L64.94,62.4z"/>
				<path d="M65.54,64.41c-0.01,0-0.01,0-0.02,0c-0.06-0.01-0.11-0.04-0.13-0.09l-2.36-4.22c-0.03-0.06-0.03-0.14,0.02-0.19
					c0.05-0.05,0.12-0.08,0.19-0.05l0.79,0.27c1.26,0.43,2.52,0.86,3.79,1.3c0.05,0.02,0.09,0.06,0.11,0.12
					c0.01,0.05,0,0.11-0.03,0.15L67.62,62c-0.05,0.05-0.12,0.08-0.19,0.05l-0.2-0.07l-0.95-0.32l-0.93,1.12
					c0.18,0.31,0.35,0.62,0.52,0.93l0.07,0.13c0.03,0.06,0.03,0.14-0.02,0.19l-0.26,0.31C65.63,64.39,65.59,64.41,65.54,64.41z
					 M63.54,60.32l2.02,3.62l0.03-0.03l-0.02-0.03c-0.19-0.34-0.38-0.69-0.58-1.03c-0.04-0.06-0.03-0.14,0.02-0.19l1.08-1.3
					c0.05-0.05,0.12-0.08,0.19-0.05l1.15,0.39l0.03-0.03c-1.18-0.41-2.37-0.81-3.55-1.22L63.54,60.32z M64.94,62.57
					c-0.01,0-0.01,0-0.02,0c-0.06-0.01-0.11-0.04-0.13-0.09c-0.15-0.26-0.29-0.52-0.44-0.78c-0.17-0.31-0.34-0.62-0.52-0.92
					c-0.03-0.06-0.03-0.14,0.02-0.19c0.05-0.05,0.12-0.07,0.18-0.05c0.62,0.21,1.24,0.42,1.85,0.63c0.05,0.02,0.09,0.06,0.11,0.12
					c0.01,0.05,0,0.11-0.03,0.15l-0.9,1.07C65.04,62.55,64.99,62.57,64.94,62.57z M64.35,61c0.1,0.18,0.2,0.36,0.3,0.54
					c0.11,0.19,0.21,0.38,0.32,0.57l0.58-0.69C65.15,61.27,64.75,61.13,64.35,61z"/>
			</g>
			<g>
				<path d="M37.28,72.39c-0.27-0.5-0.53-0.99-0.8-1.49c-0.14-0.26-0.27-0.51-0.4-0.76l-1.05-1.96l-0.07-0.12
					c-0.34,1.46-0.68,2.92-1.01,4.38l0.37,0.09l0.78-3.39c0.41,0.75,0.8,1.5,1.21,2.25l1.11,2.08l1.01-4.38L38.06,69L37.28,72.39z"
					/>
				<path d="M37.43,73.64c-0.06,0-0.12-0.03-0.15-0.09l-1.11-2.08c-0.24-0.44-0.48-0.89-0.72-1.34c-0.09-0.17-0.18-0.34-0.28-0.51
					l-0.68,2.95c-0.01,0.04-0.04,0.08-0.08,0.11c-0.04,0.02-0.08,0.03-0.13,0.02l-0.37-0.09c-0.09-0.02-0.15-0.11-0.13-0.2
					c0.34-1.46,0.67-2.92,1.01-4.38c0.02-0.07,0.07-0.12,0.14-0.13c0.07-0.01,0.14,0.03,0.17,0.09l1.11,2.08
					c0.13,0.25,0.27,0.5,0.4,0.76l0.31,0.57c0.09,0.17,0.19,0.35,0.28,0.52l0.68-2.96c0.01-0.04,0.04-0.08,0.08-0.11
					c0.04-0.02,0.08-0.03,0.13-0.02l0.38,0.09c0.09,0.02,0.15,0.11,0.13,0.2l-1.01,4.38c-0.02,0.07-0.07,0.12-0.14,0.13
					C37.44,73.64,37.43,73.64,37.43,73.64z M35.1,68.96c0.06,0,0.12,0.03,0.15,0.09c0.16,0.3,0.33,0.61,0.49,0.91
					c0.24,0.45,0.48,0.89,0.72,1.34l0.9,1.68l0.87-3.78l-0.04-0.01l-0.75,3.23c-0.02,0.07-0.07,0.12-0.14,0.13
					c-0.07,0.01-0.14-0.03-0.17-0.09c-0.16-0.31-0.33-0.61-0.49-0.92l-0.31-0.57c-0.14-0.26-0.27-0.51-0.4-0.76l-0.9-1.68
					c-0.29,1.26-0.58,2.51-0.87,3.77l0.04,0.01l0.74-3.22c0.02-0.07,0.07-0.12,0.14-0.13C35.08,68.97,35.09,68.96,35.1,68.96z"/>
			</g>
		</g>
	</g>
</g>
</svg>
